<?xml version="1.0" encoding="utf-8"?>
<!-- Generator: Adobe Illustrator 28.1.0, SVG Export Plug-In . SVG Version: 6.00 Build 0)  -->
<svg version="1.1" id="Capa_1" xmlns="http://www.w3.org/2000/svg" xmlns:xlink="http://www.w3.org/1999/xlink" x="0px" y="0px"
	 viewBox="0 0 683.7 473.8" style="enable-background:new 0 0 683.7 473.8;" xml:space="preserve">
<style type="text/css">
	.st0{fill:#E01650;}
	.st1{fill:#FF5082;}
	.st2{fill:#FFFFFF;stroke:#E01650;stroke-width:4;}
	.st3{fill:#FFB206;}
	.st4{fill:#FFDE95;}
	.st5{fill:#FFFFFF;stroke:#FFB206;stroke-width:4;}
	.st6{fill:#8F52F5;}
	.st7{fill:#A575F7;}
	.st8{fill:#FFFFFF;stroke:#8F52F5;stroke-width:4;}
	.st9{fill:none;}
	.st10{fill:#C7ACF5;}
	.st11{fill:#94E0DA;}
	.st12{fill:#607880;}
	.st13{fill:#F21857;}
	.st14{fill:#12263F;}
	.st15{fill-rule:evenodd;clip-rule:evenodd;fill:#FFFFFF;}
	.st16{fill-rule:evenodd;clip-rule:evenodd;fill:#D2B7FF;}
	.st17{fill-rule:evenodd;clip-rule:evenodd;fill:#3D095A;}
	.st18{fill-rule:evenodd;clip-rule:evenodd;fill:#FFB206;}
	.st19{fill-rule:evenodd;clip-rule:evenodd;fill:#29063C;}
	.st20{fill-rule:evenodd;clip-rule:evenodd;fill:#F5A96C;}
	.st21{fill-rule:evenodd;clip-rule:evenodd;fill:#FFDE95;}
	.st22{fill-rule:evenodd;clip-rule:evenodd;fill:#FFBC85;}
	.st23{fill-rule:evenodd;clip-rule:evenodd;fill:#7F17B7;}
	.st24{fill-rule:evenodd;clip-rule:evenodd;fill:#FED1A3;}
	.st25{fill-rule:evenodd;clip-rule:evenodd;fill:#FFCA53;}
	.st26{fill-rule:evenodd;clip-rule:evenodd;fill:#F6F6F6;}
	.st27{fill-rule:evenodd;clip-rule:evenodd;fill:#AA77FF;}
	.st28{fill-rule:evenodd;clip-rule:evenodd;fill:#E3A009;}
	.st29{fill:#5C379B;}
	.st30{fill:#00D7DF;}
	.st31{fill:#FF93B2;}
	.st32{fill:#E3A009;}
	.st33{fill:#AA77FF;}
	.st34{fill:#2488FF;}
	.st35{fill:#D2B7FF;}
	.st36{fill:#898890;}
</style>
<g id="Arrow" transform="translate(704.896 891.174)">
	<path id="Trazado_165596" class="st0" d="M-438.1-511.7l54.3,94.3l9.8-20.5l14.4,6.9c42.6,19.7,108.9,14.7,153.2-22.5
		c40.4-33.9,53.4-76.3,49-103.4c-24.1,66.5-116.1,79.8-164.6,57.1l-18.4-8.8l9.8-20.5L-438.1-511.7z"/>
</g>
<g id="Thickness" transform="translate(704.896 919.051)">
	<path id="Trazado_165598" class="st1" d="M-383.8-445.3l-0.2-4.5c-3.6-6.3-48-83.3-50.8-88.2l100.4-16.2l3.6-2.7l-107.4,17.3
		L-383.8-445.3z"/>
	<path id="Trazado_165599" class="st1" d="M-206.4-481.4c25.5-21.3,40-46.1,46.2-68.2l-2.3,0.4c-6.3,21.6-20.6,45.6-45.2,66.2
		c-42.4,35.5-101.9,39.6-141.4,25.9l-0.8,2C-307.5-440.1-247.5-446.9-206.4-481.4z"/>
</g>
<g id="White_circle" transform="translate(874.438 844.16)">
	<path id="Trazado_165601" class="st2" d="M-438.1-500.9c0-30.9,25-55.9,55.9-55.9s55.9,25,55.9,55.9c0,30.9-25,55.9-55.9,55.9
		S-438.1-470.1-438.1-500.9L-438.1-500.9z"/>
</g>
<g id="_03" transform="translate(530.474 658.041)">
	<g id="Arrow-2" transform="translate(24.909 28.51)">
		<path id="Trazado_165602" class="st3" d="M-269.8-556.7l-108.8-0.1l12.9,18.7l-13.2,9.1c-38.4,27.1-67.1,87-57.1,143.9
			c9.1,51.9,39.4,84.4,65,94.1c-45.5-54.1-11.1-140.4,32.8-171.1l16.8-11.6l12.9,18.7L-269.8-556.7z"/>
	</g>
	<g id="Thickness-2" transform="translate(24.909 28.51)">
		<path id="Trazado_165604" class="st4" d="M-378.6-556.8l4,2.1l101.7,0.1l-36.2,95.1l0.5,4.5l38.7-101.7L-378.6-556.8z"/>
		<path id="Trazado_165605" class="st4" d="M-436.1-385.2c5.7,32.7,19.9,57.7,36,74.1l0.8-2.2c-15.6-16.3-29.2-40.7-34.8-72.3
			c-9.6-54.5,16.6-108.1,48.2-135.5l-1.3-1.7C-421.2-493.4-445.3-438-436.1-385.2z"/>
	</g>
	<g id="White_circle-2" transform="translate(55.916 186.12)">
		<path id="Trazado_165607" class="st5" d="M-438.1-500.9c0-30.9,25-55.9,55.9-55.9s55.9,25,55.9,55.9c0,30.9-25,55.9-55.9,55.9
			C-413-445-438.1-470.1-438.1-500.9L-438.1-500.9z"/>
	</g>
</g>
<g id="Arrow-3" transform="translate(751.027 588.441)">
	<path id="Trazado_165608" class="st6" d="M-258.6-317.6l54.5-94.1l-22.6,1.8l-1.3-15.9c-4.2-46.7-41.7-101.6-96-121.4
		c-49.5-18.1-92.8-8-114,9.2c69.6-12.4,127.2,60.6,131.8,114l1.6,20.3l-22.6,1.8L-258.6-317.6z"/>
</g>
<g id="Thickness-3" transform="translate(782.84 588.445)">
	<path id="Trazado_165610" class="st7" d="M-235.9-411.7l-3.8,2.4c-3.6,6.3-48.2,83.2-51,88l-64.2-78.9l-4.2-1.8l68.7,84.4
		L-235.9-411.7z"/>
	<path id="Trazado_165611" class="st7" d="M-355.9-547.3c-31.2-11.4-59.9-11.6-82.2-5.9l1.5,1.8c21.9-5.4,49.8-4.9,80,6
		c51.9,18.9,85.3,68.5,93.2,109.5l2.1-0.3C-269.6-480.3-305.5-528.9-355.9-547.3z"/>
</g>
<g id="White_circle-3" transform="translate(730.416 594.699)">
	<path id="Trazado_165613" class="st8" d="M-438.1-500.9c0-30.9,25-55.9,55.9-55.9c30.9,0,55.9,25,55.9,55.9s-25,55.9-55.9,55.9
		S-438.1-470.1-438.1-500.9C-438.1-500.9-438.1-500.9-438.1-500.9z"/>
</g>
<path id="Trazado_165614" class="st6" d="M251.4,8c0-4.4,3.6-8,8-8s8,3.6,8,8c0,4.4-3.6,8-8,8C254.9,16,251.4,12.4,251.4,8z"/>
<path id="Trazado_165615" class="st0" d="M582.3,287.4c0-4.4,3.6-8,8-8c4.4,0,8,3.6,8,8c0,4.4-3.6,8-8,8
	C585.8,295.4,582.3,291.8,582.3,287.4L582.3,287.4z"/>
<path id="Trazado_165616" class="st3" d="M126.4,415.8c0-4.4,3.6-8,8-8s8,3.6,8,8s-3.6,8-8,8l0,0
	C129.9,423.8,126.4,420.2,126.4,415.8C126.4,415.8,126.4,415.8,126.4,415.8z"/>
<g id="Grupo_107784" transform="translate(232.333 27.332)">
	<path id="Rectángulo_35951" class="st9" d="M-50.4,283.8h42c5.5,0,10,4.5,10,10v42c0,5.5-4.5,10-10,10h-42c-5.5,0-10-4.5-10-10
		v-42C-60.4,288.3-55.9,283.8-50.4,283.8z"/>
	<g id="agrietamiento" transform="translate(378 847.9)">
		<g id="Grupo_107782" transform="translate(0.839 0.84)">
			<path id="Trazado_164062" class="st10" d="M-438.1-547.8h59.7v34.3c0,1.2-1,2.1-2.1,2.1h-55.4c-1.2,0-2.1-1-2.1-2.1V-547.8z"/>
			<path id="Trazado_164063" class="st3" d="M-435.7-556.8h54.9c1.3,0,2.4,1.1,2.4,2.4c0,0,0,0,0,0v6.6h-59.7v-6.6
				C-438.1-555.8-437-556.8-435.7-556.8L-435.7-556.8z"/>
			<g id="Grupo_107780" transform="translate(2.995 3.683)">
				<path id="Trazado_164064" class="st11" d="M-385.2-555.2h-32.9c-0.5,0-0.9-0.3-0.9-0.8c0-0.5,0.3-0.9,0.8-0.9c0,0,0,0,0.1,0
					h32.9c0.5,0,0.8,0.4,0.8,0.9C-384.4-555.5-384.8-555.2-385.2-555.2z"/>
				<path id="Trazado_164065" class="st11" d="M-435-555.2h-2.2c-0.5,0-0.9-0.3-0.9-0.8c0-0.5,0.3-0.9,0.8-0.9c0,0,0,0,0.1,0h2.2
					c0.5,0,0.8,0.4,0.8,0.9C-434.2-555.5-434.6-555.2-435-555.2z"/>
				<path id="Trazado_164066" class="st11" d="M-428.6-555.2h-2.2c-0.5,0-0.8-0.4-0.8-0.9c0-0.4,0.4-0.8,0.8-0.8h2.2
					c0.5,0,0.8,0.4,0.8,0.9C-427.8-555.5-428.2-555.2-428.6-555.2z"/>
				<path id="Trazado_164067" class="st11" d="M-422.2-555.2h-2.2c-0.5,0-0.9-0.3-0.9-0.8c0-0.5,0.3-0.9,0.8-0.9c0,0,0,0,0.1,0h2.2
					c0.5,0,0.8,0.4,0.8,0.9C-421.4-555.5-421.8-555.2-422.2-555.2z"/>
			</g>
			<path id="Trazado_164068" class="st12" d="M-401.2-533.1h-3.8v-4.7c0-1.1-0.9-1.9-1.9-1.9h-2.6c-1.1,0-1.9,0.9-1.9,1.9v0.9h-3.8
				v-0.9c0-3.2,2.6-5.7,5.8-5.8h2.6c3.2,0,5.7,2.6,5.8,5.8V-533.1z"/>
			<g id="Grupo_107781" transform="translate(20.149 23.715)">
				<path id="Trazado_164069" class="st13" d="M-420.6-556.8h-6.1l-1.4,3.9h4.3l-4.9,12.6h8.1c1.1,0,1.9-0.9,1.9-1.9v-12.6
					C-418.7-556-419.6-556.8-420.6-556.8z"/>
				<path id="Trazado_164070" class="st13" d="M-433.7-549.1l2.9-7.7h-5.4c-1.1,0-1.9,0.9-1.9,1.9c0,0,0,0,0,0v12.6
					c0,1.1,0.9,1.9,1.9,1.9h7.4l-0.1-8.8H-433.7z"/>
			</g>
		</g>
		<g id="Grupo_107783" transform="translate(0 0)">
			<path id="Trazado_164071" d="M-380-556.8h-53.4c-0.5,0-0.9,0.3-0.9,0.8c0,0.5,0.3,0.9,0.8,0.9c0,0,0,0,0.1,0h53.4
				c0.9,0,1.6,0.7,1.6,1.6v5.8h-58v-5.8c0-0.5-0.3-0.9-0.8-0.9c-0.5,0-0.9,0.3-0.9,0.8c0,0,0,0,0,0.1v41c0,1.6,1.3,3,3,3h55.4
				c1.6,0,3-1.3,3-3v-41C-376.7-555.4-378.2-556.8-380-556.8z M-378.4-512.6c0,0.7-0.6,1.3-1.3,1.3h-55.4c-0.7,0-1.3-0.6-1.3-1.3
				v-33.5h58V-512.6z"/>
			<path id="Trazado_164072" d="M-381.4-550.6c0.5,0,0.8-0.4,0.8-0.9c0-0.4-0.4-0.8-0.8-0.8h-32.9c-0.5,0-0.8,0.4-0.8,0.9
				c0,0.4,0.4,0.8,0.8,0.8H-381.4z"/>
			<path id="Trazado_164073" d="M-431.2-550.6c0.5,0,0.8-0.4,0.8-0.9c0-0.4-0.4-0.8-0.8-0.8h-2.2c-0.5,0-0.8,0.4-0.8,0.9
				c0,0.4,0.4,0.8,0.8,0.8H-431.2z"/>
			<path id="Trazado_164074" d="M-424.8-550.6c0.5,0,0.9-0.3,0.9-0.8c0-0.5-0.3-0.9-0.8-0.9c0,0,0,0-0.1,0h-2.2
				c-0.5,0-0.8,0.4-0.8,0.9c0,0.4,0.4,0.8,0.8,0.8H-424.8z"/>
			<path id="Trazado_164075" d="M-418.4-550.6c0.5,0,0.8-0.4,0.8-0.9c0-0.4-0.4-0.8-0.8-0.8h-2.2c-0.5,0-0.8,0.4-0.8,0.9
				c0,0.4,0.4,0.8,0.8,0.8H-418.4z"/>
			<path id="Trazado_164076" d="M-397.7-525.8c-0.5,0-0.8,0.4-0.8,0.8v1.9c0,0.5,0.4,0.8,0.9,0.8c0.4,0,0.8-0.4,0.8-0.8v-1.9
				C-396.9-525.5-397.2-525.8-397.7-525.8z"/>
			<path id="Trazado_164077" d="M-415.2-515h15.5c1.5,0,2.8-1.2,2.8-2.8c0-0.5-0.4-0.8-0.9-0.8c-0.4,0-0.8,0.4-0.8,0.8
				c0,0.6-0.5,1.1-1.1,1.1h-6.9l4.5-11.4c0.2-0.4,0-0.9-0.5-1.1c-0.1,0-0.2-0.1-0.3-0.1h-3.1l0.8-2.2h5.5c0.6,0,1.1,0.5,1.1,1.1
				c0,0,0,0,0,0c0,0.5,0.3,0.9,0.8,0.9c0.5,0,0.9-0.3,0.9-0.8c0,0,0,0,0-0.1c0-1.5-1.2-2.7-2.6-2.8v-3.9c0-3.6-3-6.6-6.6-6.6h-2.6
				c-3.6,0-6.6,3-6.6,6.6v0.9c0,0.5,0.4,0.8,0.8,0.8c0,0,0,0,0,0h3.8c0.5,0,0.8-0.4,0.8-0.8l0,0v-0.9c0-0.6,0.5-1.1,1.1-1.1h2.6
				c0.6,0,1.1,0.5,1.1,1.1v3.9h-0.7c-0.4,0-0.7,0.2-0.8,0.5l-1.4,3.9c-0.2,0.4,0.1,0.9,0.5,1.1c0.1,0,0.2,0.1,0.3,0.1h3.1l-2.9,7.4
				l0-4.4c0-0.5-0.4-0.8-0.8-0.8h-3.6l2.5-6.6c0.2-0.4-0.1-0.9-0.5-1.1c-0.1,0-0.2-0.1-0.3-0.1h-5.4c-1.5,0-2.8,1.2-2.8,2.8v12.6
				C-417.9-516.2-416.7-515-415.2-515z M-406.1-539.8h-2.6c-1.5,0-2.8,1.2-2.8,2.8v0.1h-2.2v-0.1c0-2.7,2.2-4.9,4.9-4.9h2.6
				c2.7,0,4.9,2.2,4.9,4.9v3.9h-2.2v-3.9C-403.4-538.5-404.6-539.8-406.1-539.8L-406.1-539.8z M-416.2-530.4c0-0.6,0.5-1.1,1.1-1.1
				h4.2l-2.4,6.6c-0.2,0.4,0.1,0.9,0.5,1.1c0.1,0,0.2,0.1,0.3,0.1h4l0.1,7.1h-6.5c-0.6,0-1.1-0.5-1.1-1.1L-416.2-530.4z"/>
		</g>
	</g>
</g>
<path id="Trazado_165840" class="st14" d="M63.9,9.2c0-0.4-0.2-0.8-0.5-1c-0.5-0.3-1.1-0.6-1.7-0.8C61,7.2,60.4,7,59.8,6.6
	c-1.1-0.5-1.9-1.6-1.9-2.8c0-0.6,0.2-1.2,0.5-1.6c0.4-0.5,0.9-0.9,1.5-1.1c0.7-0.3,1.4-0.4,2.2-0.4c0.7,0,1.5,0.1,2.2,0.4
	c0.6,0.3,1.1,0.7,1.5,1.2c0.4,0.5,0.5,1.2,0.5,1.8h-2.3c0-0.5-0.2-0.9-0.5-1.2C63,2.6,62.5,2.5,62,2.5c-0.5,0-0.9,0.1-1.3,0.4
	c-0.3,0.2-0.5,0.6-0.5,1c0,0.4,0.2,0.7,0.6,0.9c0.5,0.3,1.1,0.5,1.6,0.7c1.1,0.3,2.1,0.8,2.9,1.5c0.6,0.6,0.9,1.4,0.9,2.2
	c0,0.9-0.4,1.8-1.1,2.3c-0.9,0.6-1.9,0.9-3,0.8c-0.8,0-1.6-0.2-2.4-0.5c-0.7-0.3-1.2-0.7-1.6-1.3c-0.4-0.6-0.6-1.2-0.6-1.9h2.4
	c0,1.3,0.8,1.9,2.2,1.9c0.5,0,0.9-0.1,1.3-0.3C63.7,9.9,63.9,9.6,63.9,9.2z M70,12.2h-2.3V3.7H70V12.2z M67.6,1.5
	c0-0.3,0.1-0.6,0.3-0.8c0.3-0.2,0.6-0.3,0.9-0.3c0.3,0,0.7,0.1,0.9,0.3c0.2,0.2,0.4,0.5,0.3,0.8c0,0.3-0.1,0.6-0.3,0.8
	c-0.5,0.4-1.3,0.4-1.8,0C67.7,2.1,67.6,1.8,67.6,1.5L67.6,1.5z M76.5,9.8c0-0.3-0.2-0.5-0.4-0.7c-0.4-0.2-0.9-0.4-1.3-0.4
	c-2-0.4-3-1.3-3-2.6c0-0.7,0.3-1.4,0.9-1.9c0.7-0.5,1.6-0.8,2.4-0.8c0.9,0,1.8,0.2,2.6,0.8c0.6,0.5,1,1.2,1,2h-2.3
	c0-0.3-0.1-0.6-0.3-0.8c-0.3-0.2-0.6-0.3-1-0.3c-0.3,0-0.6,0.1-0.9,0.3c-0.2,0.2-0.3,0.4-0.3,0.7c0,0.3,0.1,0.5,0.4,0.6
	C74.6,6.9,75,7,75.5,7.1c0.5,0.1,1,0.2,1.4,0.4c1.1,0.3,1.8,1.2,1.8,2.3c0,0.8-0.4,1.5-1,1.9c-0.8,0.5-1.7,0.8-2.6,0.7
	c-0.6,0-1.3-0.1-1.9-0.4c-0.5-0.2-1-0.6-1.3-1c-0.3-0.4-0.5-0.9-0.5-1.4h2.1c0,0.4,0.2,0.7,0.4,0.9c0.3,0.2,0.7,0.3,1.1,0.3
	c0.3,0,0.7-0.1,1-0.2C76.3,10.3,76.5,10.1,76.5,9.8L76.5,9.8z M82.8,1.6v2.1h1.4v1.7h-1.4v4.2c0,0.2,0,0.5,0.2,0.7
	c0.2,0.2,0.4,0.2,0.7,0.2c0.2,0,0.4,0,0.7-0.1v1.7c-0.4,0.1-0.9,0.2-1.4,0.2c-1.2,0.2-2.3-0.7-2.4-1.9c0-0.2,0-0.4,0-0.5V5.4h-1.2
	V3.7h1.2V1.6L82.8,1.6z M89.4,12.3c-1.1,0-2.2-0.4-3-1.1c-0.8-0.8-1.2-1.9-1.2-3V7.9c0-0.8,0.2-1.6,0.5-2.3C86,5,86.5,4.5,87.1,4.1
	c0.6-0.4,1.3-0.6,2.1-0.5c1-0.1,2,0.3,2.7,1.1c0.7,0.9,1.1,2,1,3.1v0.9h-5.4c0.1,0.5,0.3,1,0.7,1.3c0.4,0.3,0.9,0.5,1.4,0.5
	c0.8,0,1.6-0.3,2-0.9l1.1,1.2c-0.4,0.5-0.8,0.9-1.4,1.1C90.7,12.2,90.1,12.3,89.4,12.3L89.4,12.3z M89.2,5.4c-0.4,0-0.8,0.2-1.1,0.5
	c-0.3,0.4-0.5,0.8-0.5,1.3h3.1V7c0-0.4-0.1-0.8-0.4-1.2C90,5.5,89.6,5.3,89.2,5.4L89.2,5.4z M96.3,3.7l0.1,0.9
	c0.6-0.7,1.5-1.1,2.4-1.1c0.9-0.1,1.8,0.4,2.2,1.3c0.6-0.8,1.5-1.3,2.5-1.3c0.8-0.1,1.5,0.2,2,0.8c0.5,0.7,0.7,1.6,0.7,2.4v5.4H104
	V6.8c0-0.4-0.1-0.7-0.3-1.1c-0.3-0.3-0.6-0.4-1-0.3c-0.6,0-1.2,0.4-1.4,1l0,5.8h-2.3V6.8c0-0.4-0.1-0.8-0.3-1.1
	c-0.3-0.2-0.6-0.4-1-0.3c-0.6,0-1.1,0.3-1.4,0.8v6h-2.3V3.7L96.3,3.7z M112.9,12.2c-0.1-0.2-0.2-0.5-0.2-0.8
	c-0.5,0.6-1.3,0.9-2.1,0.9c-0.8,0-1.5-0.2-2.1-0.7c-0.5-0.5-0.8-1.1-0.8-1.8c0-0.8,0.3-1.6,1-2.1c0.9-0.5,1.9-0.8,2.9-0.7h1V6.5
	c0-0.3-0.1-0.7-0.3-0.9c-0.2-0.3-0.6-0.4-0.9-0.4c-0.3,0-0.6,0.1-0.9,0.3c-0.2,0.2-0.3,0.5-0.3,0.8h-2.3c0-0.5,0.2-1,0.5-1.4
	c0.3-0.4,0.8-0.8,1.3-1c0.6-0.2,1.2-0.4,1.9-0.4c0.9,0,1.8,0.2,2.5,0.8c0.6,0.6,1,1.4,0.9,2.2v3.7c0,0.6,0.1,1.2,0.3,1.8v0.1H112.9z
	 M111.1,10.6c0.3,0,0.6-0.1,0.9-0.2c0.3-0.1,0.5-0.3,0.6-0.6V8.3h-0.8c-1.1,0-1.7,0.4-1.8,1.2l0,0.1c0,0.3,0.1,0.5,0.3,0.7
	C110.5,10.5,110.8,10.6,111.1,10.6L111.1,10.6z M121.2,9.8c0-0.3-0.2-0.5-0.4-0.7c-0.4-0.2-0.9-0.4-1.3-0.4c-2-0.4-3-1.3-3-2.6
	c0-0.7,0.3-1.4,0.9-1.9c0.7-0.5,1.6-0.8,2.4-0.8c0.9,0,1.8,0.2,2.6,0.8c0.6,0.5,1,1.2,1,2h-2.3c0-0.3-0.1-0.6-0.3-0.8
	c-0.3-0.2-0.6-0.3-1-0.3c-0.3,0-0.6,0.1-0.9,0.3c-0.2,0.2-0.3,0.4-0.3,0.7c0,0.3,0.1,0.5,0.4,0.6c0.4,0.2,0.8,0.3,1.2,0.4
	c0.5,0.1,1,0.2,1.4,0.4c1,0.3,1.8,1.2,1.8,2.3c0,0.8-0.4,1.5-1,1.9c-0.8,0.5-1.7,0.8-2.6,0.7c-0.6,0-1.3-0.1-1.9-0.4
	c-0.5-0.2-1-0.6-1.3-1c-0.3-0.4-0.5-0.9-0.5-1.4h2.1c0,0.4,0.2,0.7,0.4,0.9c0.3,0.2,0.7,0.3,1.1,0.3c0.3,0,0.7-0.1,1-0.2
	C121.1,10.3,121.2,10.1,121.2,9.8L121.2,9.8z M128.5,7.9c-0.1-1.1,0.3-2.2,0.9-3.1c0.6-0.8,1.5-1.2,2.4-1.2c0.8,0,1.5,0.3,2,0.9V0.2
	h2.3v12h-2l-0.1-0.9c-0.5,0.7-1.3,1.1-2.2,1.1c-0.9,0-1.8-0.4-2.4-1.2C128.7,10.2,128.4,9,128.5,7.9z M130.7,8
	c0,0.6,0.1,1.3,0.4,1.8c0.3,0.4,0.7,0.7,1.2,0.6c0.6,0,1.2-0.3,1.5-0.9V6.3c-0.3-0.6-0.8-0.9-1.5-0.9C131.3,5.4,130.7,6.3,130.7,8
	L130.7,8z M141.7,12.3c-1.1,0-2.2-0.4-3-1.1c-0.8-0.8-1.2-1.9-1.2-3V7.9c0-0.8,0.2-1.6,0.5-2.3c0.3-0.6,0.8-1.2,1.4-1.5
	c0.6-0.4,1.3-0.6,2.1-0.5c1-0.1,2,0.3,2.7,1.1c0.7,0.9,1.1,2,1,3.1v0.9h-5.4c0.1,0.5,0.3,1,0.7,1.3c0.4,0.3,0.9,0.5,1.4,0.5
	c0.8,0,1.6-0.3,2-0.9l1.1,1.2c-0.3,0.5-0.8,0.9-1.4,1.1C143,12.2,142.4,12.3,141.7,12.3L141.7,12.3z M141.5,5.4
	c-0.4,0-0.8,0.2-1.1,0.5c-0.3,0.4-0.5,0.8-0.5,1.3h3.1V7c0-0.4-0.1-0.8-0.4-1.2C142.3,5.5,141.9,5.3,141.5,5.4L141.5,5.4z
	 M152.8,12.2h-2.3V3.7h2.3V12.2z M150.4,1.5c0-0.3,0.1-0.6,0.3-0.8c0.5-0.4,1.3-0.4,1.8,0c0.2,0.2,0.4,0.5,0.3,0.8
	c0,0.3-0.1,0.6-0.3,0.8c-0.5,0.4-1.3,0.4-1.8,0C150.6,2.1,150.4,1.8,150.4,1.5z M156.8,3.7l0.1,1c0.6-0.7,1.5-1.2,2.4-1.1
	c0.8-0.1,1.5,0.2,2,0.8c0.5,0.7,0.7,1.5,0.7,2.4v5.5h-2.3V6.7c0-0.4-0.1-0.7-0.3-1c-0.3-0.2-0.7-0.4-1-0.3c-0.6,0-1.1,0.3-1.4,0.8v6
	h-2.3V3.7H156.8z M164.3,12.2V5.4H163V3.7h1.3V3c0-0.8,0.2-1.6,0.8-2.2c0.6-0.6,1.4-0.8,2.3-0.8c0.4,0,0.8,0.1,1.1,0.2l0,1.7
	c-0.2-0.1-0.5-0.1-0.7-0.1c-0.8,0-1.3,0.4-1.3,1.2v0.7h1.7v1.7h-1.7v6.8H164.3z M169,7.9c0-0.8,0.2-1.5,0.5-2.2
	c0.3-0.6,0.8-1.2,1.4-1.5c0.6-0.4,1.4-0.6,2.1-0.5c1,0,2,0.3,2.8,1c0.7,0.8,1.2,1.8,1.2,2.8l0,0.6c0.1,1.1-0.3,2.3-1.1,3.1
	c-1.6,1.6-4.2,1.6-5.8,0c-0.8-0.9-1.2-2-1.1-3.2L169,7.9z M171.3,8c0,0.6,0.1,1.3,0.5,1.8c0.5,0.7,1.6,0.8,2.3,0.3
	c0.1-0.1,0.2-0.2,0.3-0.3c0.4-0.6,0.5-1.3,0.5-2c0-0.6-0.1-1.3-0.5-1.8c-0.3-0.4-0.8-0.7-1.3-0.6c-0.5,0-1,0.2-1.3,0.6
	C171.4,6.6,171.3,7.3,171.3,8L171.3,8z M183.2,5.8c-0.3,0-0.5-0.1-0.8-0.1c-0.7-0.1-1.4,0.3-1.7,0.9v5.5h-2.3V3.7h2.1l0.1,1
	c0.4-0.7,1.1-1.2,1.9-1.2c0.2,0,0.5,0,0.7,0.1L183.2,5.8z M186.4,3.7l0.1,0.9c0.6-0.7,1.5-1.1,2.4-1.1c0.9-0.1,1.8,0.4,2.2,1.3
	c0.6-0.8,1.5-1.3,2.5-1.3c0.8-0.1,1.5,0.2,2,0.8c0.5,0.7,0.7,1.6,0.7,2.4v5.4h-2.3V6.8c0-0.4-0.1-0.7-0.3-1.1
	c-0.3-0.3-0.6-0.4-1-0.3c-0.6,0-1.2,0.4-1.4,1l0,5.8h-2.3V6.8c0-0.4-0.1-0.8-0.3-1.1c-0.3-0.2-0.6-0.4-1-0.3c-0.6,0-1.1,0.3-1.4,0.8
	v6h-2.3V3.7L186.4,3.7z M203,12.2c-0.1-0.2-0.2-0.5-0.2-0.8c-0.5,0.6-1.3,0.9-2.1,0.9c-0.8,0-1.5-0.2-2.1-0.7
	c-0.5-0.5-0.8-1.1-0.8-1.8c0-0.8,0.3-1.6,1-2.1c0.9-0.5,1.9-0.8,2.9-0.7h1V6.5c0-0.3-0.1-0.7-0.3-0.9c-0.2-0.3-0.6-0.4-0.9-0.4
	c-0.3,0-0.6,0.1-0.9,0.3c-0.2,0.2-0.3,0.5-0.3,0.8H198c0-0.5,0.2-1,0.5-1.4c0.3-0.4,0.8-0.8,1.3-1c0.6-0.2,1.2-0.4,1.9-0.4
	c0.9,0,1.8,0.2,2.5,0.8c0.6,0.6,1,1.4,0.9,2.2v3.7c0,0.6,0.1,1.2,0.3,1.8v0.1H203z M201.2,10.6c0.3,0,0.6-0.1,0.9-0.2
	c0.3-0.1,0.5-0.3,0.6-0.6V8.3h-0.8c-1.1,0-1.7,0.4-1.8,1.2l0,0.1c0,0.3,0.1,0.5,0.3,0.7C200.6,10.5,200.9,10.6,201.2,10.6z
	 M210.2,10.5c0.4,0,0.7-0.1,1-0.3c0.3-0.2,0.4-0.6,0.4-0.9h2.1c0,0.6-0.2,1.1-0.5,1.6c-0.3,0.5-0.7,0.9-1.3,1.1
	c-0.6,0.3-1.2,0.4-1.8,0.4c-1.1,0.1-2.1-0.4-2.9-1.2c-0.7-0.9-1.1-2-1-3.2V7.8c-0.1-1.1,0.3-2.2,1-3.1c0.7-0.8,1.8-1.2,2.8-1.2
	c0.9,0,1.8,0.3,2.5,0.9c0.6,0.6,1,1.5,1,2.4h-2.1c0-0.4-0.1-0.8-0.4-1.1c-0.6-0.6-1.6-0.5-2.1,0.1c0,0-0.1,0.1-0.1,0.1
	c-0.3,0.6-0.5,1.2-0.4,1.9V8c-0.1,0.7,0.1,1.3,0.4,1.9C209.3,10.3,209.8,10.5,210.2,10.5L210.2,10.5z M217.4,12.2h-2.3V3.7h2.3V12.2
	z M215,1.5c0-0.3,0.1-0.6,0.3-0.8c0.5-0.4,1.3-0.4,1.8,0c0.2,0.2,0.4,0.5,0.3,0.8c0,0.3-0.1,0.6-0.3,0.8c-0.5,0.4-1.3,0.4-1.8,0
	C215.2,2.1,215,1.8,215,1.5L215,1.5z M218.9,7.9c0-0.8,0.2-1.5,0.5-2.2c0.3-0.6,0.8-1.2,1.4-1.5c0.6-0.4,1.4-0.6,2.1-0.5
	c1,0,2,0.3,2.8,1c0.7,0.8,1.2,1.8,1.2,2.8l0,0.6c0.1,1.1-0.3,2.3-1.1,3.1c-1.6,1.6-4.2,1.6-5.8,0c-0.8-0.9-1.2-2-1.1-3.2V7.9z
	 M221.2,8c0,0.6,0.1,1.3,0.5,1.8c0.5,0.7,1.6,0.8,2.3,0.3c0.1-0.1,0.2-0.2,0.3-0.3c0.4-0.6,0.5-1.3,0.5-2c0-0.6-0.1-1.3-0.5-1.8
	c-0.3-0.4-0.8-0.7-1.3-0.6c-0.5,0-1,0.2-1.3,0.6C221.3,6.6,221.2,7.3,221.2,8L221.2,8z M223.4,0.2h2.5l-2.2,2.4h-1.8L223.4,0.2z
	 M230.4,3.7l0.1,1c0.6-0.7,1.5-1.2,2.4-1.1c0.8-0.1,1.5,0.2,2,0.8c0.5,0.7,0.7,1.5,0.7,2.4v5.5h-2.3V6.7c0-0.4-0.1-0.7-0.3-1
	c-0.3-0.2-0.7-0.4-1-0.3c-0.6,0-1.1,0.3-1.4,0.8v6h-2.3V3.7H230.4z"/>
<path id="Trazado_165841" class="st14" d="M300.7,267.9h-2.8v6.2h-3.5v-17.1h6.3c1.7-0.1,3.3,0.4,4.7,1.3c1.1,0.9,1.7,2.4,1.6,3.8
	c0,1-0.2,2-0.8,2.9c-0.6,0.8-1.4,1.5-2.3,1.9l3.7,7v0.2h-3.8L300.7,267.9z M297.9,265.1h2.8c0.7,0,1.5-0.2,2.1-0.7
	c0.5-0.5,0.8-1.2,0.7-1.9c0-0.7-0.2-1.4-0.7-1.9c-0.6-0.5-1.3-0.8-2.1-0.7h-2.8V265.1z M313.1,274.2h-3.4v-12.7h3.4V274.2z
	 M309.5,258.2c0-0.5,0.2-0.9,0.5-1.3c0.8-0.7,2-0.7,2.8,0c0.3,0.3,0.5,0.8,0.5,1.3c0,0.5-0.2,0.9-0.5,1.3c-0.8,0.7-2,0.7-2.8,0
	C309.7,259.1,309.5,258.7,309.5,258.2L309.5,258.2z M321.7,274.4c-1.7,0.1-3.3-0.5-4.5-1.7c-1.2-1.2-1.8-2.9-1.8-4.6v-0.3
	c0-1.2,0.2-2.3,0.7-3.4c0.5-1,1.2-1.8,2.1-2.3c0.9-0.6,2-0.8,3.1-0.8c1.5-0.1,3,0.5,4.1,1.6c1.1,1.3,1.6,3,1.5,4.7v1.4h-8.1
	c0.1,0.8,0.4,1.5,1,2c0.6,0.5,1.3,0.8,2.1,0.7c1.2,0.1,2.3-0.5,3.1-1.4l1.7,1.9c-0.5,0.7-1.2,1.3-2.1,1.7
	C323.7,274.2,322.7,274.4,321.7,274.4L321.7,274.4z M321.3,264c-0.6,0-1.2,0.2-1.6,0.7c-0.5,0.6-0.7,1.2-0.8,2h4.7v-0.3
	c0-0.6-0.2-1.3-0.6-1.7C322.6,264.2,322,263.9,321.3,264L321.3,264z M335.7,270.7c0-0.4-0.2-0.8-0.6-1c-0.6-0.3-1.3-0.5-2-0.6
	c-3-0.6-4.5-1.9-4.5-3.8c0-1.1,0.5-2.2,1.4-2.8c1.1-0.8,2.3-1.2,3.7-1.1c1.4-0.1,2.7,0.3,3.9,1.1c0.9,0.7,1.5,1.8,1.4,3h-3.4
	c0-0.4-0.2-0.9-0.5-1.2c-0.4-0.3-0.9-0.5-1.5-0.5c-0.5,0-0.9,0.1-1.3,0.4c-0.3,0.2-0.5,0.6-0.5,1c0,0.4,0.2,0.7,0.5,0.9
	c0.6,0.3,1.2,0.5,1.8,0.6c0.7,0.1,1.4,0.3,2.1,0.6c1.8,0.7,2.7,1.8,2.7,3.4c0,1.1-0.5,2.2-1.5,2.8c-1.1,0.8-2.5,1.1-3.8,1.1
	c-1,0-1.9-0.2-2.8-0.6c-0.8-0.3-1.4-0.9-1.9-1.6c-0.5-0.6-0.7-1.4-0.7-2.1h3.2c0,0.5,0.2,1,0.7,1.4c0.5,0.3,1.1,0.5,1.7,0.5
	c0.5,0,1-0.1,1.5-0.4C335.6,271.4,335.7,271,335.7,270.7z M340.7,267.7c-0.1-1.7,0.4-3.3,1.4-4.7c0.9-1.2,2.3-1.8,3.7-1.8
	c1.2-0.1,2.5,0.5,3.2,1.4l0.1-1.2h3.1v12.3c0,1-0.2,2-0.8,2.9c-0.5,0.8-1.2,1.5-2.1,1.9c-1,0.4-2.1,0.7-3.2,0.6
	c-0.9,0-1.9-0.2-2.7-0.6c-0.8-0.3-1.5-0.8-2-1.4l1.5-2.1c0.8,0.9,1.9,1.4,3.1,1.4c0.8,0,1.5-0.2,2.1-0.7c0.5-0.5,0.8-1.3,0.8-2v-0.7
	c-0.8,0.9-1.9,1.4-3.1,1.3c-1.4,0-2.8-0.6-3.7-1.8c-1-1.4-1.5-3-1.4-4.7L340.7,267.7z M344.1,268c-0.1,1,0.2,1.9,0.7,2.7
	c0.4,0.6,1.1,1,1.9,1c0.9,0.1,1.8-0.4,2.2-1.2v-5.4c-0.4-0.8-1.3-1.2-2.2-1.2c-0.8,0-1.5,0.4-1.9,1C344.3,265.9,344,266.9,344.1,268
	L344.1,268z M354.4,267.7c0-1.2,0.2-2.3,0.7-3.4c0.5-1,1.2-1.7,2.1-2.3c1-0.6,2.1-0.8,3.2-0.8c1.6-0.1,3.1,0.5,4.2,1.6
	c1.1,1.1,1.8,2.7,1.8,4.3l0,0.9c0.1,1.7-0.5,3.4-1.6,4.7c-2.4,2.3-6.3,2.4-8.7,0c-1.1-1.3-1.7-3-1.6-4.8L354.4,267.7z M357.8,268
	c-0.1,1,0.2,1.9,0.7,2.8c0.8,1.1,2.4,1.3,3.4,0.5c0.2-0.1,0.3-0.3,0.4-0.4c0.5-0.9,0.8-2,0.7-3c0.1-1-0.2-1.9-0.7-2.7
	c-0.4-0.6-1.2-1-1.9-1c-0.8,0-1.5,0.3-1.9,1C357.9,265.9,357.7,266.9,357.8,268L357.8,268z M375.3,270.7c0-0.4-0.2-0.8-0.6-1
	c-0.6-0.3-1.3-0.5-2-0.6c-3-0.6-4.5-1.9-4.5-3.8c0-1.1,0.5-2.2,1.4-2.8c1.1-0.8,2.3-1.2,3.7-1.1c1.4-0.1,2.7,0.3,3.9,1.1
	c0.9,0.7,1.5,1.8,1.4,3h-3.4c0-0.4-0.2-0.9-0.5-1.2c-0.4-0.3-0.9-0.5-1.5-0.5c-0.5,0-0.9,0.1-1.3,0.4c-0.3,0.2-0.5,0.6-0.5,1
	c0,0.4,0.2,0.7,0.5,0.9c0.6,0.3,1.2,0.5,1.8,0.6c0.7,0.1,1.4,0.3,2.1,0.6c1.8,0.7,2.7,1.8,2.7,3.4c0,1.1-0.5,2.2-1.5,2.8
	c-1.1,0.8-2.5,1.1-3.8,1.1c-1,0-1.9-0.2-2.8-0.6c-0.8-0.3-1.4-0.9-1.9-1.6c-0.5-0.6-0.7-1.4-0.7-2.1h3.2c0,0.5,0.2,1,0.7,1.4
	c0.5,0.3,1.1,0.5,1.7,0.5c0.5,0,1-0.1,1.5-0.4C375.2,271.4,375.3,271,375.3,270.7z M386.3,267.7c-0.1-1.7,0.4-3.3,1.3-4.7
	c0.8-1.2,2.2-1.8,3.6-1.8c1.2,0,2.3,0.5,3.1,1.4v-6.5h3.4v18h-3.1l-0.2-1.3c-0.8,1-2,1.6-3.3,1.6c-1.4,0-2.8-0.6-3.6-1.8
	C386.6,271.2,386.2,269.5,386.3,267.7L386.3,267.7z M389.6,268c-0.1,1,0.2,1.9,0.6,2.7c0.4,0.6,1.1,1,1.8,1c0.9,0.1,1.8-0.5,2.2-1.3
	v-5c-0.4-0.9-1.3-1.4-2.2-1.3C390.5,264,389.6,265.3,389.6,268L389.6,268z M406.1,274.4c-1.7,0.1-3.3-0.5-4.5-1.7
	c-1.2-1.2-1.8-2.9-1.8-4.6v-0.3c0-1.2,0.2-2.3,0.7-3.4c0.5-1,1.2-1.8,2.1-2.3c0.9-0.6,2-0.8,3.1-0.8c1.5-0.1,3,0.5,4.1,1.6
	c1.1,1.3,1.6,3,1.5,4.7v1.4h-8.1c0.1,0.8,0.4,1.5,1,2c0.6,0.5,1.3,0.8,2.1,0.8c1.2,0.1,2.3-0.5,3.1-1.4l1.7,1.9
	c-0.5,0.7-1.2,1.3-2.1,1.7C408.1,274.2,407.1,274.4,406.1,274.4L406.1,274.4z M405.8,264c-0.6,0-1.2,0.2-1.6,0.7
	c-0.5,0.6-0.7,1.2-0.8,2h4.7v-0.3c0-0.6-0.2-1.3-0.6-1.7C407,264.2,406.4,263.9,405.8,264L405.8,264z M278.2,303.7
	c0.6,0,1.1-0.2,1.5-0.5c0.4-0.3,0.6-0.8,0.6-1.4h3.2c0,0.8-0.2,1.7-0.7,2.4c-0.5,0.7-1.1,1.3-1.9,1.7c-0.8,0.4-1.7,0.6-2.7,0.6
	c-1.6,0.1-3.2-0.6-4.3-1.7c-1.1-1.3-1.7-3-1.6-4.8v-0.2c-0.1-1.7,0.5-3.4,1.6-4.7c1.1-1.2,2.7-1.8,4.3-1.7c1.4-0.1,2.8,0.4,3.8,1.4
	c1,0.9,1.5,2.2,1.5,3.6h-3.2c0-0.6-0.2-1.2-0.6-1.6c-0.4-0.4-1-0.6-1.5-0.6c-0.7,0-1.4,0.3-1.8,0.9c-0.5,0.9-0.7,1.8-0.6,2.8v0.4
	c-0.1,1,0.1,2,0.6,2.8C276.8,303.4,277.5,303.7,278.2,303.7z M289,306.2h-3.4v-12.7h3.4V306.2z M285.4,290.2c0-0.5,0.2-0.9,0.5-1.3
	c0.8-0.7,2-0.7,2.8,0c0.7,0.7,0.7,1.8,0,2.5c-0.8,0.7-2,0.7-2.8,0C285.6,291.1,285.4,290.7,285.4,290.2z M303.3,299.9
	c0.1,1.7-0.4,3.4-1.3,4.8c-0.9,1.1-2.2,1.8-3.6,1.7c-1.3,0-2.5-0.5-3.3-1.6l-0.2,1.3h-3v-18h3.4v6.5c0.8-0.9,1.9-1.4,3.1-1.4
	c1.4-0.1,2.8,0.6,3.6,1.7c1,1.4,1.4,3.1,1.3,4.8L303.3,299.9z M299.9,299.7c0.1-1-0.1-2-0.6-2.8c-0.4-0.6-1.1-0.9-1.8-0.9
	c-0.9-0.1-1.8,0.5-2.2,1.3v5c0.4,0.9,1.3,1.4,2.2,1.3c1,0.1,1.9-0.6,2.2-1.6C299.8,301.3,299.9,300.5,299.9,299.7L299.9,299.7z
	 M311.2,306.4c-1.7,0.1-3.3-0.5-4.5-1.7c-1.2-1.2-1.8-2.9-1.8-4.6v-0.3c0-1.2,0.2-2.3,0.7-3.4c0.5-1,1.2-1.8,2.1-2.3
	c0.9-0.6,2-0.8,3.1-0.8c1.5-0.1,3,0.5,4.1,1.6c1.1,1.3,1.6,3,1.5,4.7v1.4h-8.1c0.1,0.8,0.4,1.5,1,2c0.6,0.5,1.3,0.8,2.1,0.8
	c1.2,0.1,2.3-0.5,3.1-1.4l1.7,1.9c-0.5,0.7-1.2,1.3-2.1,1.7C313.2,306.2,312.2,306.4,311.2,306.4L311.2,306.4z M310.8,296
	c-0.6,0-1.2,0.2-1.6,0.7c-0.5,0.6-0.7,1.2-0.8,2h4.7v-0.3c0-0.6-0.2-1.3-0.6-1.7C312,296.2,311.4,295.9,310.8,296L310.8,296z
	 M325.4,296.7c-0.4-0.1-0.8-0.1-1.2-0.1c-1-0.1-2,0.4-2.5,1.3v8.3h-3.4v-12.7h3.2l0.1,1.5c0.5-1.1,1.6-1.8,2.8-1.7
	c0.4,0,0.7,0,1.1,0.2L325.4,296.7z M333.9,302.7c0-0.4-0.2-0.8-0.6-1c-0.6-0.3-1.3-0.5-2-0.6c-3-0.6-4.5-1.9-4.5-3.8
	c0-1.1,0.5-2.2,1.4-2.8c1.1-0.8,2.3-1.2,3.7-1.1c1.4-0.1,2.7,0.3,3.9,1.1c0.9,0.7,1.5,1.8,1.4,3h-3.4c0-0.4-0.2-0.9-0.5-1.2
	c-0.4-0.3-0.9-0.5-1.5-0.5c-0.5,0-0.9,0.1-1.3,0.4c-0.3,0.2-0.5,0.6-0.5,1c0,0.4,0.2,0.7,0.5,0.9c0.6,0.3,1.2,0.5,1.8,0.6
	c0.7,0.1,1.4,0.3,2.1,0.6c1.8,0.7,2.7,1.8,2.7,3.4c0,1.1-0.5,2.2-1.5,2.8c-1.1,0.8-2.5,1.1-3.8,1.1c-1,0-1.9-0.2-2.8-0.6
	c-0.8-0.3-1.4-0.9-1.9-1.6c-0.5-0.6-0.7-1.4-0.7-2.1h3.2c0,0.5,0.2,1,0.7,1.4c0.5,0.3,1.1,0.5,1.7,0.5c0.5,0,1-0.1,1.5-0.4
	C333.8,303.4,333.9,303,333.9,302.7L333.9,302.7z M345.2,306.4c-1.7,0.1-3.3-0.5-4.5-1.7c-1.2-1.2-1.8-2.9-1.8-4.6v-0.3
	c0-1.2,0.2-2.3,0.7-3.4c0.5-1,1.2-1.8,2.1-2.3c0.9-0.6,2-0.8,3.1-0.8c1.5-0.1,3,0.5,4.1,1.6c1.1,1.3,1.6,3,1.5,4.7v1.4h-8.1
	c0.1,0.8,0.4,1.5,1,2c0.6,0.5,1.3,0.8,2.1,0.8c1.2,0.1,2.3-0.5,3.1-1.4l1.7,1.9c-0.5,0.7-1.2,1.3-2.1,1.7
	C347.2,306.2,346.2,306.4,345.2,306.4z M344.9,296c-0.6,0-1.2,0.2-1.6,0.7c-0.5,0.6-0.7,1.2-0.8,2h4.7v-0.3c0-0.6-0.2-1.3-0.6-1.7
	C346.1,296.2,345.5,295.9,344.9,296L344.9,296z M351.9,299.7c-0.1-1.7,0.4-3.3,1.4-4.7c0.9-1.2,2.3-1.8,3.7-1.8
	c1.2-0.1,2.5,0.5,3.2,1.4l0.1-1.2h3.1v12.3c0,1-0.2,2-0.8,2.9c-0.5,0.8-1.2,1.5-2.1,1.9c-1,0.4-2.1,0.7-3.2,0.6
	c-0.9,0-1.9-0.2-2.7-0.6c-0.8-0.3-1.5-0.8-2-1.4l1.5-2.1c0.8,0.9,1.9,1.4,3.1,1.4c0.8,0,1.5-0.2,2.1-0.7c0.5-0.5,0.8-1.3,0.8-2v-0.7
	c-0.8,0.9-1.9,1.4-3.1,1.3c-1.4,0-2.8-0.6-3.7-1.8c-1-1.4-1.5-3-1.4-4.7L351.9,299.7z M355.3,300c-0.1,1,0.2,1.9,0.7,2.7
	c0.4,0.6,1.1,1,1.9,1c0.9,0.1,1.8-0.4,2.2-1.2v-5.4c-0.4-0.8-1.3-1.2-2.2-1.2c-0.8,0-1.5,0.4-1.9,1
	C355.4,297.9,355.2,298.9,355.3,300L355.3,300z M373.7,304.9c-0.9,1-2.1,1.6-3.5,1.5c-1.2,0.1-2.3-0.3-3.1-1.2
	c-0.8-1-1.2-2.2-1.1-3.4v-8.3h3.4v8.2c0,1.3,0.6,2,1.8,2c1,0.1,1.9-0.4,2.4-1.2v-9h3.4v12.7h-3.2L373.7,304.9z M386.6,296.7
	c-0.4-0.1-0.8-0.1-1.2-0.1c-1-0.1-2,0.4-2.5,1.3v8.3h-3.4v-12.7h3.2l0.1,1.5c0.5-1.1,1.6-1.8,2.8-1.7c0.4,0,0.7,0,1.1,0.2
	L386.6,296.7z M391.8,306.2h-3.4v-12.7h3.4V306.2z M388.2,290.2c0-0.5,0.2-0.9,0.5-1.3c0.8-0.7,2-0.7,2.8,0c0.7,0.7,0.7,1.8,0,2.5
	c-0.8,0.7-2,0.7-2.8,0C388.4,291.1,388.2,290.7,388.2,290.2L388.2,290.2z M394.1,299.7c-0.1-1.7,0.4-3.3,1.3-4.7
	c0.8-1.2,2.2-1.8,3.6-1.8c1.2,0,2.3,0.5,3.1,1.4v-6.5h3.4v18h-3.1l-0.2-1.3c-0.8,1-2,1.6-3.3,1.6c-1.4,0-2.8-0.6-3.6-1.8
	C394.5,303.2,394,301.5,394.1,299.7L394.1,299.7z M397.5,300c-0.1,1,0.2,1.9,0.6,2.7c0.4,0.6,1.1,1,1.8,1c0.9,0.1,1.8-0.5,2.2-1.3
	v-5c-0.4-0.9-1.3-1.4-2.2-1.3C398.3,296,397.5,297.3,397.5,300L397.5,300z M415.5,306.2c-0.2-0.4-0.3-0.7-0.3-1.1
	c-0.8,0.9-2,1.4-3.2,1.4c-1.1,0-2.2-0.3-3.1-1.1c-0.8-0.7-1.2-1.7-1.2-2.7c-0.1-1.2,0.5-2.4,1.5-3.1c1.3-0.8,2.8-1.2,4.3-1.1h1.6
	v-0.7c0-0.5-0.1-1-0.5-1.4c-0.4-0.4-0.9-0.6-1.4-0.5c-0.5,0-1,0.1-1.3,0.4c-0.3,0.3-0.5,0.7-0.5,1.1h-3.4c0-0.7,0.2-1.5,0.7-2
	c0.5-0.7,1.2-1.2,1.9-1.5c0.9-0.4,1.8-0.5,2.8-0.5c1.3-0.1,2.7,0.3,3.7,1.2c0.9,0.8,1.4,2.1,1.4,3.3v5.5c0,0.9,0.1,1.9,0.5,2.7v0.2
	H415.5z M412.7,303.8c0.5,0,1-0.1,1.4-0.3c0.4-0.2,0.7-0.5,0.9-0.9v-2.2h-1.3c-1.7,0-2.6,0.6-2.7,1.8l0,0.2c0,0.4,0.2,0.8,0.4,1
	C411.8,303.7,412.3,303.8,412.7,303.8L412.7,303.8z M420.5,299.7c-0.1-1.7,0.4-3.3,1.3-4.7c0.8-1.2,2.2-1.8,3.6-1.8
	c1.2,0,2.3,0.5,3.1,1.4v-6.5h3.4v18h-3.1l-0.2-1.3c-0.8,1-2,1.6-3.3,1.6c-1.4,0-2.8-0.6-3.6-1.8
	C420.9,303.2,420.4,301.5,420.5,299.7L420.5,299.7z M423.9,300c-0.1,1,0.2,1.9,0.6,2.7c0.4,0.6,1.1,1,1.8,1c0.9,0.1,1.8-0.5,2.2-1.3
	v-5c-0.4-0.9-1.3-1.4-2.2-1.3C424.7,296,423.9,297.3,423.9,300L423.9,300z"/>
<path id="Trazado_165843" class="st14" d="M616.4,290.8h-4.1l-0.8,2.3H609l4.2-11.4h2.2l4.3,11.4h-2.5L616.4,290.8z M612.9,288.9
	h2.8l-1.4-4.3L612.9,288.9z M622.3,284.7l0.1,0.9c0.6-0.7,1.5-1.1,2.4-1.1c0.9-0.1,1.8,0.4,2.2,1.3c0.6-0.8,1.5-1.3,2.5-1.3
	c0.8-0.1,1.5,0.2,2,0.8c0.5,0.7,0.7,1.6,0.7,2.4v5.4h-2.3v-5.4c0-0.4-0.1-0.7-0.3-1.1c-0.3-0.3-0.6-0.4-1-0.3c-0.6,0-1.2,0.4-1.4,1
	l0,5.8h-2.3v-5.4c0-0.4-0.1-0.8-0.3-1.1c-0.3-0.2-0.6-0.4-1-0.3c-0.6,0-1.1,0.3-1.4,0.8v6h-2.3v-8.5L622.3,284.7z M637.9,293.3
	c-1.1,0-2.2-0.4-3-1.1c-0.8-0.8-1.2-1.9-1.2-3v-0.2c0-0.8,0.2-1.6,0.5-2.3c0.3-0.6,0.8-1.2,1.4-1.5c0.6-0.4,1.3-0.6,2.1-0.5
	c1-0.1,2,0.3,2.7,1.1c0.7,0.9,1.1,2,1,3.1v0.9H636c0.1,0.5,0.3,1,0.7,1.3c0.4,0.3,0.9,0.5,1.4,0.5c0.8,0,1.6-0.3,2-0.9l1.1,1.2
	c-0.4,0.5-0.8,0.9-1.4,1.1C639.3,293.2,638.6,293.3,637.9,293.3z M637.7,286.4c-0.4,0-0.8,0.2-1.1,0.5c-0.3,0.4-0.5,0.8-0.5,1.3h3.1
	V288c0-0.4-0.1-0.8-0.4-1.2C638.5,286.5,638.1,286.3,637.7,286.4z M644.8,284.7l0.1,1c0.6-0.7,1.5-1.2,2.4-1.1
	c0.8-0.1,1.5,0.2,2,0.8c0.5,0.7,0.7,1.5,0.7,2.4v5.5h-2.3v-5.4c0-0.4-0.1-0.7-0.3-1c-0.3-0.2-0.7-0.4-1-0.3c-0.6,0-1.1,0.3-1.4,0.8
	v6h-2.3v-8.5H644.8z M656.6,293.2c-0.1-0.2-0.2-0.5-0.2-0.8c-0.5,0.6-1.3,0.9-2.1,0.9c-0.8,0-1.5-0.2-2.1-0.7
	c-0.5-0.5-0.8-1.1-0.8-1.8c0-0.8,0.3-1.6,1-2.1c0.9-0.5,1.9-0.8,2.9-0.7h1v-0.5c0-0.3-0.1-0.7-0.3-0.9c-0.2-0.3-0.6-0.4-0.9-0.4
	c-0.3,0-0.6,0.1-0.9,0.3c-0.2,0.2-0.3,0.5-0.3,0.8h-2.3c0-0.5,0.2-1,0.5-1.4c0.3-0.4,0.8-0.8,1.3-1c0.6-0.2,1.2-0.4,1.9-0.4
	c0.9,0,1.8,0.2,2.5,0.8c0.6,0.6,1,1.4,0.9,2.2v3.7c0,0.6,0.1,1.2,0.3,1.8v0.1H656.6z M654.7,291.6c0.3,0,0.6-0.1,0.9-0.2
	c0.3-0.1,0.5-0.3,0.6-0.6v-1.5h-0.8c-1.1,0-1.7,0.4-1.8,1.2l0,0.1c0,0.3,0.1,0.5,0.3,0.7C654.1,291.5,654.4,291.6,654.7,291.6z
	 M662.8,291.3h4.1v1.8h-7v-1.4l4-5.3h-3.9v-1.8h6.8v1.3L662.8,291.3z M673.3,293.2c-0.1-0.2-0.2-0.5-0.2-0.8
	c-0.5,0.6-1.3,0.9-2.1,0.9c-0.8,0-1.5-0.2-2.1-0.7c-0.5-0.5-0.8-1.1-0.8-1.8c0-0.8,0.3-1.6,1-2.1c0.9-0.5,1.9-0.8,2.9-0.7h1v-0.5
	c0-0.3-0.1-0.7-0.3-0.9c-0.2-0.3-0.6-0.4-0.9-0.4c-0.3,0-0.6,0.1-0.9,0.3c-0.2,0.2-0.3,0.5-0.3,0.8h-2.3c0-0.5,0.2-1,0.5-1.4
	c0.3-0.4,0.8-0.8,1.3-1c0.6-0.2,1.2-0.4,1.9-0.4c0.9,0,1.8,0.2,2.5,0.8c0.6,0.6,1,1.4,0.9,2.2v3.7c0,0.6,0.1,1.2,0.3,1.8v0.1H673.3z
	 M671.4,291.6c0.3,0,0.6-0.1,0.9-0.2c0.3-0.1,0.5-0.3,0.6-0.6v-1.5h-0.8c-1.1,0-1.7,0.4-1.8,1.2l0,0.1c0,0.3,0.1,0.5,0.3,0.7
	C670.8,291.5,671.1,291.6,671.4,291.6z M681.5,290.8c0-0.3-0.2-0.5-0.4-0.7c-0.4-0.2-0.9-0.4-1.3-0.4c-2-0.4-3-1.3-3-2.6
	c0-0.7,0.3-1.4,0.9-1.9c0.7-0.5,1.6-0.8,2.4-0.8c0.9,0,1.8,0.2,2.6,0.8c0.6,0.5,1,1.2,1,2h-2.3c0-0.3-0.1-0.6-0.3-0.8
	c-0.3-0.2-0.6-0.3-1-0.3c-0.3,0-0.6,0.1-0.9,0.3c-0.2,0.2-0.3,0.4-0.3,0.7c0,0.3,0.1,0.5,0.4,0.6c0.4,0.2,0.8,0.3,1.2,0.4
	c0.5,0.1,1,0.2,1.4,0.4c1.1,0.3,1.8,1.2,1.8,2.3c0,0.8-0.4,1.5-1,1.9c-0.8,0.5-1.7,0.8-2.6,0.7c-0.6,0-1.3-0.1-1.9-0.4
	c-0.5-0.2-1-0.6-1.3-1c-0.3-0.4-0.5-0.9-0.5-1.4h2.1c0,0.4,0.2,0.7,0.4,0.9c0.3,0.2,0.7,0.3,1.1,0.3c0.3,0,0.7-0.1,1-0.2
	C681.4,291.3,681.5,291.1,681.5,290.8z"/>
<g id="riesgo" transform="translate(760.458 743.73)">
	<g id="Grupo_108397" transform="translate(6.354 6.354)">
		<g id="Grupo_108396">
			<g id="Grupo_108395">
				<g id="Grupo_108394">
					<g id="Grupo_108393">
						<g id="Grupo_108392">
							<circle id="Elipse_4870" class="st0" cx="-414" cy="-532.8" r="24.1"/>
							<path id="Trazado_165668" class="st0" d="M-412-508.8c-0.7,0.1-1.3,0.1-2,0.1c-13.3,0-24-10.8-24-24.1c0-13.3,10.8-24,24-24
								c0.7,0,1.3,0,2,0.1c-13.2,1.1-23.1,12.7-22,26C-433-519.1-423.7-509.8-412-508.8L-412-508.8z"/>
							<path id="Trazado_165669" class="st0" d="M-390-532.8c0,13.3-10.8,24-24,24.1c-0.7,0-1.3,0-2-0.1c13.2-1.1,23.1-12.7,22-26
								c-1-11.7-10.3-21-22-22c0.7-0.1,1.3-0.1,2-0.1C-400.7-556.8-390-546.1-390-532.8L-390-532.8z"/>
						</g>
					</g>
				</g>
			</g>
		</g>
	</g>
	<g id="Grupo_108401" transform="translate(28.209 16.208)">
		<g id="Grupo_108400" transform="translate(0 0)">
			<g id="Grupo_108399">
				<circle id="Elipse_4871" class="st3" cx="-435.9" cy="-530.6" r="2.2"/>
				<path id="Trazado_165670" class="st3" d="M-434.9-528.7c-1.1,0.5-2.4,0.1-2.9-1s-0.1-2.4,1-2.9c0.6-0.3,1.3-0.3,2,0
					c-1.1,0.5-1.5,1.9-1,2.9C-435.7-529.2-435.3-528.9-434.9-528.7z"/>
				<g id="Grupo_108398" transform="translate(0.006)">
					<path id="Trazado_165671" class="st3" d="M-438.1-554.6v16.2c0,1.2,1,2.2,2.2,2.2c0,0,0,0,0,0c1.2,0,2.1-1,2.1-2.2v-16.3
						c0-1.2-0.9-2.2-2.1-2.2C-437-556.9-438-555.9-438.1-554.6C-438.1-554.7-438.1-554.7-438.1-554.6L-438.1-554.6z"/>
					<path id="Trazado_165672" class="st3" d="M-434.9-536.4c-0.3,0.1-0.6,0.2-0.9,0.2c-1.2,0-2.2-1-2.2-2.2c0,0,0,0,0,0v-16.2
						c0-1.2,1-2.2,2.2-2.2c0.3,0,0.7,0.1,1,0.2c-0.7,0.4-1.2,1.1-1.2,2v16.2C-436.1-537.6-435.6-536.8-434.9-536.4z"/>
				</g>
			</g>
		</g>
	</g>
	<g id="Grupo_108402" transform="translate(5.542 5.542)">
		<path id="Trazado_165673" d="M-413.2-556.8c-13.7,0-24.9,11.1-24.9,24.9s11.1,24.9,24.9,24.9c13.7,0,24.9-11.1,24.9-24.9
			C-388.3-545.7-399.5-556.8-413.2-556.8z M-413.2-508.7c-12.8,0-23.2-10.4-23.2-23.2c0-12.8,10.4-23.2,23.2-23.2
			c12.8,0,23.2,10.4,23.2,23.2c0,0,0,0,0,0C-390-519.1-400.4-508.7-413.2-508.7L-413.2-508.7z"/>
		<path id="Trazado_165674" d="M-395.2-540.7c-0.2-0.4-0.7-0.6-1.1-0.4c-0.4,0.2-0.6,0.7-0.4,1.1c1.3,3.3,1.7,6.8,1.2,10.3
			c-0.1,0.4,0.2,0.9,0.7,0.9c0.4,0.1,0.9-0.2,0.9-0.7c0,0,0,0,0,0C-393.4-533.3-393.8-537.2-395.2-540.7z"/>
		<path id="Trazado_165675" d="M-395.1-527.4c-0.4-0.1-0.9,0.1-1,0.6c-0.3,0.9-0.6,1.9-1,2.8c-0.2,0.4,0,0.9,0.4,1.1s0.9,0,1.1-0.4
			c0,0,0,0,0,0c0.4-1,0.8-2,1-3C-394.4-526.9-394.7-527.3-395.1-527.4C-395.1-527.4-395.1-527.4-395.1-527.4z"/>
		<path id="Trazado_165676" d="M-413.2-524.7c1.7,0,3-1.3,3-3V-544c0-1.7-1.3-3-3-3c-1.7,0-3,1.3-3,3l0,0v16.2
			C-416.2-526.1-414.9-524.7-413.2-524.7z M-414.6-544c0-0.8,0.7-1.4,1.4-1.3c0.7,0,1.3,0.6,1.3,1.3v16.3c0,0.7-0.6,1.4-1.4,1.4
			c-0.8,0-1.4-0.7-1.4-1.4L-414.6-544z"/>
		<path id="Trazado_165677" d="M-413.2-523c-1.7,0-3,1.3-3,3c0,1.7,1.3,3,3,3c1.7,0,3-1.3,3-3l0,0C-410.2-521.6-411.5-523-413.2-523
			z M-413.2-518.6c-0.8,0-1.4-0.6-1.4-1.4c0-0.8,0.6-1.4,1.4-1.4c0.8,0,1.4,0.6,1.4,1.4l0,0C-411.8-519.2-412.4-518.6-413.2-518.6
			L-413.2-518.6z"/>
	</g>
</g>
<g id="threat" transform="translate(903.402 854.746)">
	<g id="Grupo_87655" transform="translate(0.931 24.641)">
		<path id="Trazado_149809" class="st15" d="M-416.3-556.8h31.2c1.2,0,2.1,0.9,2.1,2.1v33.6c0,1.2-0.9,2.1-2.1,2.1h-50.8
			c-1.2,0-2.1-0.9-2.1-2.1v-33.6c0-1.2,0.9-2.1,2.1-2.1H-416.3z"/>
	</g>
	<g id="Grupo_87656" transform="translate(22.081 60.294)">
		<path id="Trazado_149810" class="st16" d="M-424.5-554.7l-7.1-2.1l-6.4,2.1v4.9l6.8,2l6.8-2V-554.7z"/>
	</g>
	<g id="Grupo_87657" transform="translate(5.864 47.277)">
		<path id="Trazado_149811" class="st17" d="M-433.4-556.8c-2.6,0-4.7,2.1-4.7,4.7v4.6l36.3,0v-4.7c0-2.6-2.1-4.7-4.7-4.7
			C-411.2-556.8-428.3-556.8-433.4-556.8z"/>
	</g>
	<g id="Grupo_87658" transform="translate(0.931 56.618)">
		<path id="Trazado_149812" class="st16" d="M-433.1-556.8h-4.9v3.7c0,1.2,0.9,2.1,2.1,2.1h50.8c1.2,0,2.1-0.9,2.1-2.1v-3.7h-32
			H-433.1L-433.1-556.8z"/>
	</g>
	<g id="Grupo_87659" transform="translate(13.937 67.318)">
		<path id="Trazado_149813" class="st16" d="M-416.4-556.8h-19.2c-1.3,0-2.4,1.1-2.4,2.4v1.8c0,0.4,0.3,0.6,0.6,0.6h28.5
			c0.4,0,0.6-0.3,0.6-0.6v-1.8c0-1.3-1.1-2.4-2.4-2.4H-416.4z"/>
	</g>
	<g id="Grupo_87660" transform="translate(41.701 13.619)">
		<path id="Trazado_149814" class="st18" d="M-435-545.8l-2.8,4.8c-0.5,0.9-0.2,2.1,0.8,2.6c0.3,0.1,0.6,0.2,0.9,0.2h17.2
			c1.1,0,1.9-0.9,1.9-2c0-0.3-0.1-0.6-0.2-0.9l-4.3-7.5l-4.3-7.5c-0.5-0.9-1.7-1.2-2.6-0.6c-0.3,0.2-0.5,0.4-0.6,0.6l-4.3,7.5
			L-435-545.8z"/>
	</g>
	<g id="Grupo_87661" transform="translate(33.322 47.277)">
		<path id="Trazado_149815" class="st19" d="M-433.9-556.8h-1.5c-0.8,0-1.7,0-2.6,0c0.9,0,1.8,0.3,2.5,0.8c1.3,0.9,2.1,2.3,2.1,3.9
			v4.7h4.2v-4.7C-429.2-554.7-431.3-556.8-433.9-556.8z"/>
	</g>
	<g id="Grupo_87662" transform="translate(10.11 31.221)">
		<path id="Trazado_149816" class="st20" d="M-436.2-556.8c-2.7,0-2.5,5.5,0.6,5.5h0.9c1.5-2.1,1.1-3.8-0.4-5.5H-436.2z"/>
	</g>
	<g id="Grupo_87663" transform="translate(33.911 31.221)">
		<path id="Trazado_149817" class="st20" d="M-437.3-551.4h1.1c3.1,0,3.3-5.5,0.6-5.5h-1.2C-438.3-555.2-438.5-553.6-437.3-551.4z"
			/>
	</g>
	<g id="Grupo_87664" transform="translate(12.155 40.924)">
		<path id="Trazado_149818" class="st21" d="M-434-556.6c-2.3,0.9-3.9,3.1-4,5.6c0,3.3,2.7,6,6.1,6.1h5
			C-425.3-549.3-429.4-558.5-434-556.6z"/>
	</g>
	<g id="Grupo_87665" transform="translate(24.973 41.165)">
		<path id="Trazado_149819" class="st21" d="M-436-555.2c-3,0.3-1.7,6.4-2.1,10.1h4.9c3.3,0,6-2.7,6.1-6.1c0-0.2,0-0.3,0-0.5
			c-0.3-2.3-1.8-4.3-4-5.1C-432.9-557.1-433.3-555.5-436-555.2z"/>
	</g>
	<g id="Grupo_87666" transform="translate(18.817 41.66)">
		<path id="Trazado_149820" class="st22" d="M-438.1-551.3c0,3.1,2,5.6,4.4,5.6h1.8c2.4-0.1,4.4-2.6,4.4-5.6v-3.7
			c-3.9-2.6-7-2.4-10.6,0L-438.1-551.3z"/>
	</g>
	<g id="Grupo_87667" transform="translate(13.539 33.025)">
		<path id="Trazado_149821" class="st23" d="M-435.4-548.7c0.8,0.9,1.7,1.7,2.6,2.3c0.8,0.6,1.8,1,2.7,1.4c1.6,0.7,3.5,0.7,5.1,0
			c1-0.4,1.9-0.8,2.8-1.4c1-0.7,1.8-1.4,2.6-2.3c1.2-1.3,2.1-2.8,2.7-4.5l-6.1-2.3c-1.5-0.6-3-1.5-4.5-1.4c-1.2,0.1-2.3,1-3.4,1.4
			l-7.1,2.3C-437.5-551.5-436.6-550-435.4-548.7z"/>
	</g>
	<g id="Grupo_87668" transform="translate(13.113 17.663)">
		<path id="Trazado_149822" class="st17" d="M-416-545.9c-0.4-14.6-22-14.6-22,0.1v0.7l11.6,1.9l10.5-1.9V-545.9z"/>
	</g>
	<g id="Grupo_87669" transform="translate(13.113 29.327)">
		<path id="Trazado_149823" class="st24" d="M-427.1-550.9c1.6-0.1,2.9,1.4,4.5,1.4h6.1c0.1-0.3,0.2-0.5,0.2-0.8
			c0.1-0.6,0.2-1.2,0.2-1.9v-4.7h-22v4.9c0,0.6,0.1,1.1,0.2,1.7c0.1,0.3,0.1,0.5,0.2,0.8h7.1C-429.3-549.5-428.3-550.8-427.1-550.9z
			"/>
	</g>
	<g id="Grupo_87670" transform="translate(23.841 17.661)">
		<path id="Trazado_149824" class="st19" d="M-438.1-556.8c4.3,1.1,8.1,4.6,8.2,10.6v1.1h3.1v-0.7
			C-426.9-553.3-432.5-556.9-438.1-556.8z"/>
	</g>
	<g id="Grupo_87671" transform="translate(31.492 29.327)">
		<path id="Trazado_149825" class="st22" d="M-437.5-555.3v2.8c0,0.6-0.1,1.3-0.2,1.9c0,0,0,0.1,0,0.1c-0.1,0.2-0.1,0.5-0.2,0.7
			c0,0.1-0.1,0.2-0.1,0.4h3.2c0.1-0.3,0.2-0.5,0.2-0.8c0.1-0.6,0.2-1.2,0.2-1.9v-4.7h-3.1L-437.5-555.3L-437.5-555.3z"/>
	</g>
	<g id="Grupo_87672" transform="translate(21.834 36.704)">
		<path id="Trazado_149826" class="st17" d="M-428.4-556.8c-0.6,1.5-1.5,2.9-2.6,4.1c-0.5,0.5-1,1.1-1.6,1.5
			c-0.2,0.2-0.4,0.3-0.6,0.4c-0.2,0.1-0.3,0.2-0.5,0.3s-0.3,0.2-0.5,0.3c-0.7,0.4-1.5,0.8-2.3,1.1c-0.4,0.2-0.8,0.3-1.3,0.4
			c-0.1,0-0.3,0.1-0.4,0.1c0.2,0.1,0.3,0.1,0.5,0.2c0.6,0.2,1.1,0.3,1.7,0.3c0.4,0,0.7-0.1,1-0.1c0.5-0.1,1-0.2,1.5-0.4
			c1-0.4,1.9-0.8,2.8-1.4c1-0.7,1.8-1.4,2.6-2.3c1.2-1.3,2.1-2.8,2.7-4.5L-428.4-556.8L-428.4-556.8z"/>
	</g>
	<g id="Grupo_87673" transform="translate(29.541 41.196)">
		<path id="Trazado_149827" class="st25" d="M-436.9-555.6c1.3,0.9,2.2,2.3,2.5,3.9c0,0.1,0,0.3,0.1,0.4c0,0.2,0,0.3,0,0.5
			c0,2.5-1.5,4.7-3.8,5.6h0.4c3.3,0,6-2.7,6.1-6.1c0-0.2,0-0.3,0-0.5c-0.3-2.3-1.8-4.3-4-5.1C-436-556.4-436.4-556-436.9-555.6z"/>
	</g>
	<g id="Grupo_87674" transform="translate(18.817 43.499)">
		<path id="Trazado_149828" class="st20" d="M-438.1-556.8v3.2c0,1.3,6.1,2.6,8.4,1.1c0.2-0.1,0.4,0,0.4,0.4v1.7
			c0,0.7-0.1,1.4-0.3,2.1c1.4-1.2,2.2-3,2.2-4.8v-3.7c-0.9,0.6-1.8,1.1-2.8,1.4c-0.5,0.2-1,0.3-1.5,0.4c-0.3,0.1-0.7,0.1-1,0.1
			c-0.6,0-1.2-0.1-1.7-0.3c-0.2,0-0.3-0.1-0.5-0.2c-0.1,0-0.2-0.1-0.3-0.1C-436.3-555.8-437.2-556.2-438.1-556.8L-438.1-556.8z"/>
	</g>
	<g id="Grupo_87675" transform="translate(51.085 32.271)">
		<path id="Trazado_149829" class="st26" d="M-438.1-556.8v24.3h4.9v-24.3H-438.1z"/>
	</g>
	<g id="Grupo_87676" transform="translate(48.973 56.618)">
		<path id="Trazado_149830" class="st27" d="M-431-556.8h-4.9v3.7c0,1.2-0.9,2.1-2.1,2.1h4.9c1.2,0,2.1-0.9,2.1-2.1L-431-556.8z"/>
	</g>
	<g id="Grupo_87677" transform="translate(50.966 13.619)">
		<path id="Trazado_149831" class="st28" d="M-438.1-556.4c2.5,2.9,3.9,6.7,3.8,10.5v0.3c0,2.6-0.6,5.1-1.8,7.4h7.8
			c1.1,0,1.9-0.9,1.9-2c0-0.3-0.1-0.6-0.2-0.9l-4.3-7.5l-4.3-7.5c-0.6-0.9-1.7-1.2-2.7-0.6C-437.9-556.5-438-556.5-438.1-556.4z"/>
	</g>
	<g id="Grupo_87678" transform="translate(22.081 62.435)">
		<path id="Trazado_149832" class="st27" d="M-438.1-556.8v2.5h9.9c1.1,0.1,1.2,0.5,1.2,0.9v1.5h2.5v-4.9H-438.1z"/>
	</g>
	<g id="Grupo_87679" transform="translate(36.833 67.318)">
		<path id="Trazado_149833" class="st27" d="M-431.1-554.4c0-1.3-1.1-2.4-2.4-2.4h-4.5c1.3,0,2.4,1.1,2.4,2.4v1.8
			c0,0.4-0.3,0.6-0.6,0.6h4.5c0.4,0,0.6-0.3,0.6-0.6L-431.1-554.4z"/>
	</g>
	<g id="Grupo_87680" transform="translate(0 12.688)">
		<path id="Trazado_149834" d="M-409.6-535.6c0.1,0,0.1,0,0.2,0l2.1-0.5c0.5-0.1,0.8-0.6,0.7-1.1c-0.1-0.5-0.6-0.8-1.1-0.7
			c0,0,0,0,0,0l-2.1,0.5c-0.5,0.1-0.8,0.6-0.7,1.1C-410.4-535.9-410-535.6-409.6-535.6L-409.6-535.6z"/>
		<path id="Trazado_149835" d="M-420.1-536.1l2.1,0.5c0.5,0.1,1-0.2,1.1-0.7s-0.2-1-0.7-1.1c0,0,0,0,0,0l-2.1-0.5
			c-0.5-0.1-1,0.2-1.1,0.7C-420.9-536.7-420.6-536.2-420.1-536.1z"/>
		<path id="Trazado_149836" d="M-374.8-540.5l-4.3-7.5l-4.3-7.5l0,0c-0.5-0.9-1.4-1.4-2.5-1.4l0,0c-1,0-1.9,0.5-2.4,1.4l-4.3,7.4
			l-1.3,2.2h-9.1c-0.7-1.6-1.7-3-3-4.1c-2.3-1.9-5.2-3-8.3-2.9c-3,0-5.8,1.1-8,3.1c-1.2,1.1-2.1,2.4-2.7,3.9H-435c-1.7,0-3,1.4-3,3
			v33.6c0,1.7,1.4,3,3,3h18.1v3h-4.8c-1.9,0-3.4,1.5-3.4,3.4v1.8c0,0.9,0.7,1.6,1.6,1.6h28.5c0.9,0,1.6-0.7,1.6-1.6v-1.8
			c0-1.9-1.5-3.4-3.4-3.4h-4.8v-3h17.3c1.7,0,3-1.4,3-3v-27.1h3.9c1,0,1.9-0.6,2.4-1.4C-374.3-538.6-374.3-539.7-374.8-540.5
			L-374.8-540.5z M-424-539.3h8.1c0.5,0,0.9-0.4,0.9-1c0-0.5-0.4-0.9-0.9-0.9h-8.1c0.1-6.6,5.1-9.7,9.8-9.8h0.2
			c4.2-0.1,8,2.4,9.5,6.3l0,0c0.4,1.1,0.6,2.3,0.7,3.5h-8.1c-0.5,0-0.9,0.4-1,0.9c0,0.5,0.4,0.9,0.9,1c0,0,0,0,0.1,0h8.1v3.8
			c0,0.6-0.1,1.1-0.2,1.7c0,0,0,0.1,0,0.1h-5.4c-0.6-0.1-1.3-0.3-1.8-0.6c-0.8-0.5-1.8-0.8-2.8-0.8c-0.7,0.1-1.4,0.4-2,0.8
			c-0.4,0.3-0.8,0.5-1.3,0.6h-6.4c0,0,0-0.1,0-0.1c-0.1-0.5-0.2-1-0.2-1.4L-424-539.3L-424-539.3z M-411.8-525.5
			c-0.7,0.3-1.5,0.4-2.2,0.5c-0.8-0.1-1.5-0.2-2.2-0.5c-0.9-0.3-1.7-0.8-2.5-1.3l0,0c-0.9-0.6-1.7-1.3-2.4-2.1
			c0-0.1-0.1-0.1-0.2-0.2c-0.8-0.9-1.4-1.8-1.9-2.9h5.7c0.8-0.1,1.6-0.4,2.3-0.9c0.4-0.3,0.8-0.5,1.2-0.6c0.6,0,1.3,0.3,1.8,0.6
			c0.8,0.5,1.7,0.8,2.6,0.8h4.7C-406.2-529-408.7-526.7-411.8-525.5L-411.8-525.5z M-403-522.7c0,2.8-2.3,5.1-5.1,5.1h-1.3
			c1.1-1.3,1.7-3,1.7-4.7v-3.2c0.7-0.5,1.3-1,1.9-1.6C-404.2-526.3-403.1-524.6-403-522.7z M-409.6-524.4v2.1c0,2.5-1.6,4.6-3.5,4.7
			h-1.7c-1.9-0.1-3.5-2.2-3.5-4.7v-2c0.5,0.2,1,0.5,1.5,0.6c0.9,0.3,1.8,0.6,2.8,0.6h0.1c1-0.1,1.9-0.3,2.8-0.6
			C-410.6-523.9-410.1-524.1-409.6-524.4L-409.6-524.4z M-418.5-517.6h-1.3c-2.8,0-5.1-2.3-5.1-5.1c0.1-1.9,1.2-3.6,2.9-4.5
			c0.6,0.6,1.2,1.2,1.9,1.7v3.2C-420.2-520.6-419.6-518.9-418.5-517.6L-418.5-517.6z M-436.2-542.8c0-0.7,0.5-1.2,1.2-1.2h9.5
			c-0.2,1-0.3,2.1-0.3,3.1l0,0v1.6h-0.2c-0.9,0-1.7,0.4-2.2,1.1c-0.4,0.7-0.6,1.4-0.6,2.2c0,1.9,1.2,4,3.4,4h0.3
			c0.5,1.2,1.1,2.3,1.9,3.3c-2,1.2-3.3,3.2-3.5,5.5h-0.7c-3.1,0-5.6,2.5-5.6,5.6v3.7h-3.1V-542.8z M-425.7-533.8
			c-0.9-0.2-1.3-1.3-1.3-2.1c0-0.4,0.1-0.8,0.3-1.2c0.1-0.2,0.4-0.4,0.6-0.3h0.2v2.1C-425.9-534.8-425.8-534.3-425.7-533.8
			L-425.7-533.8z M-396.7-501.3c0.8,0,1.5,0.7,1.5,1.5v1.5h-28v-1.5c0-0.8,0.7-1.5,1.5-1.5L-396.7-501.3L-396.7-501.3z M-415-503.1
			v-3h11.7v3H-415z M-383-509.2c0,0.7-0.5,1.2-1.2,1.2H-435c-0.7,0-1.2-0.5-1.2-1.2v-2.8h3.8c0.1,0,0.3,0,0.4,0h14.3
			c0.5,0,0.9-0.4,1-0.9c0-0.5-0.4-0.9-0.9-1c0,0,0,0-0.1,0h-13.5v-3.7c0-2.1,1.7-3.7,3.7-3.7h0.9c0.7,3.2,3.5,5.5,6.8,5.5h5
			c0,0,0.1,0,0.1,0h1.5c0,0,0.1,0,0.1,0h5c3.3,0,6.2-2.3,6.8-5.6h0.7c2.1,0,3.7,1.7,3.7,3.7v3.7h-16.7c-0.5,0-0.9,0.4-0.9,1
			c0,0.5,0.4,0.9,0.9,0.9h30.5L-383-509.2z M-383-513.8h-12v-3.7c0-3.1-2.5-5.6-5.6-5.6h-0.6c-0.2-2.3-1.5-4.3-3.4-5.4
			c0.8-1,1.4-2.1,1.9-3.3h0.4c2.2,0,3.4-2,3.4-4c0-0.8-0.2-1.6-0.6-2.2c-0.5-0.7-1.3-1.2-2.2-1.1h-0.3v-1.7c0,0,0,0,0,0c0,0,0,0,0,0
			c0-1-0.2-2-0.4-3h7.4l-2,3.4c-0.5,0.9-0.5,1.9,0,2.8c0.5,0.9,1.4,1.4,2.4,1.4h11.5L-383-513.8L-383-513.8z M-402.1-533.8
			c0.1-0.6,0.2-1.2,0.2-1.7v-1.9h0.3c0.3,0,0.5,0.1,0.6,0.3c0.2,0.3,0.3,0.8,0.3,1.2C-400.7-535.1-401.1-533.9-402.1-533.8z
			 M-376.5-538.7c-0.2,0.3-0.5,0.5-0.8,0.5h-17.2c-0.3,0-0.6-0.2-0.8-0.5c-0.2-0.3-0.2-0.7,0-1l4.3-7.5l4.3-7.4
			c0.2-0.3,0.5-0.5,0.8-0.5l0,0c0.3,0,0.7,0.2,0.8,0.5l4.3,7.5l4.3,7.5C-376.3-539.3-376.3-539-376.5-538.7L-376.5-538.7z"/>
		<path id="Trazado_149837" d="M-385.9-550.8c-0.5,0-0.9,0.4-0.9,0.9c0,0,0,0,0,0v5.4c0,0.5,0.4,0.9,0.9,1c0.5,0,0.9-0.4,1-0.9
			c0,0,0,0,0-0.1v-5.4C-384.9-550.3-385.4-550.8-385.9-550.8z"/>
		<path id="Trazado_149838" d="M-385.9-541.5c-0.5,0-0.9,0.4-0.9,0.9v0v0c0,0.5,0.4,0.9,0.9,1c0.5,0,0.9-0.4,1-0.9c0,0,0,0,0-0.1v0
			C-384.9-541.1-385.4-541.5-385.9-541.5z"/>
	</g>
</g>
<g id="Multi_System" transform="translate(754 620)">
	<path id="Trazado_165678" class="st29" d="M-377.1-513.8v4c0,1.1-0.9,2-2,2h-54c-1.1,0-2-0.9-2-2v-4H-377.1z"/>
	<path id="Trazado_165679" class="st29" d="M-435.1-513.8h58v2h-58V-513.8z"/>
	<path id="Trazado_165680" class="st30" d="M-386.1-517.8l1-6h-3v-22h-22c-1.6,0-3.1,0.8-4.1,2.1c-0.5-3.8-4-6.5-7.8-6.1
		s-6.5,4-6.1,7.8c0.1,1.1,0.6,2.2,1.2,3.1h-1.3c-1.7,0-3,1.3-3,3s1.3,3,3,3h4v9h-3l1,6H-386.1z"/>
	<path id="Trazado_165681" class="st31" d="M-377.1-551.8v38h-58v-38c0-1.1,0.9-2,2-2h54C-378-553.8-377.1-552.9-377.1-551.8z"/>
	<path id="Trazado_165682" class="st1" d="M-377.1-551.8v38h-58v-0.6c13.1-2.2,25.4-7.5,36-15.4c8.5-6.4,15.7-14.5,21.1-23.7
		C-377.4-553.1-377.1-552.5-377.1-551.8z"/>
	<path id="Trazado_165683" class="st3" d="M-424.1-545.8h36v24h-36V-545.8z"/>
	<path id="Trazado_165684" class="st32" d="M-388.1-545.8v24h-35.7c9.5-2.1,18.4-6.6,25.7-13c3.7-3.2,7-6.9,9.7-11H-388.1z"/>
	<path id="Trazado_165685" class="st33" d="M-394.1-495.8h-24l3-4h18L-394.1-495.8z"/>
	<path id="Trazado_165686" class="st29" d="M-395.6-497.8h-21l1.5-2h18L-395.6-497.8z"/>
	<path id="Trazado_165687" class="st33" d="M-400.1-507.8l1,8h-14l1-8H-400.1z"/>
	<path id="Trazado_165688" class="st34" d="M-399.6-503.8h-13l0.5-4h12L-399.6-503.8z"/>
	<path id="Trazado_165689" class="st29" d="M-399.6-503.8h-13l0.5-4h12L-399.6-503.8z"/>
	<path id="Trazado_165690" class="st35" d="M-401.1-535.8c0,1.7-1.3,3-3,3h-24c-1.7,0-3-1.3-3-3s1.3-3,3-3h1.3
		c-2.2-3.2-1.4-7.5,1.7-9.7c3.2-2.2,7.5-1.4,9.7,1.7c0.6,0.9,1.1,2,1.2,3.1c1.6-2.2,4.7-2.8,7-1.2c1.9,1.4,2.6,3.9,1.7,6.1h1.4
		C-402.4-538.8-401.1-537.5-401.1-535.8z"/>
	<path id="Trazado_165691" class="st33" d="M-401.1-535.8c0,1.7-1.3,3-3,3h-24c-0.9,0-1.8-0.4-2.4-1.2c4.5-0.5,8.7-2.2,12.4-4.8
		c2.4-1.8,4.5-4.1,6.2-6.7c2.6-1,5.5,0.3,6.5,2.9c0.2,0.6,0.3,1.2,0.3,1.8c0,0.7-0.1,1.4-0.4,2h1.4
		C-402.4-538.8-401.1-537.5-401.1-535.8z"/>
	<path id="Trazado_165692" class="st36" d="M-385.1-523.8l-1,6h-40l-1-6h18v2h6v-2H-385.1z"/>
	<path id="Trazado_165693" d="M-379.1-554.8h-54c-1.7,0-3,1.3-3,3v42c0,1.7,1.3,3,3,3h19.9l-0.8,6h-1.1c-0.3,0-0.6,0.1-0.8,0.4l-3,4
		c-0.3,0.4-0.2,1.1,0.2,1.4c0.2,0.1,0.4,0.2,0.6,0.2h24c0.6,0,1-0.4,1-1c0-0.2-0.1-0.4-0.2-0.6l-3-4c-0.2-0.3-0.5-0.4-0.8-0.4h-1.1
		l-0.8-6h19.9c1.7,0,3-1.3,3-3v-42C-376.1-553.5-377.4-554.8-379.1-554.8z M-397.6-498.8l1.5,2h-20l1.5-2H-397.6z M-411.9-500.8
		l0.8-6h10.2l0.8,6H-411.9z M-378.1-509.8c0,0.6-0.4,1-1,1h-54c-0.6,0-1-0.4-1-1v-3h56V-509.8z M-378.1-514.8h-56v-37
		c0-0.6,0.4-1,1-1h54c0.6,0,1,0.4,1,1V-514.8z"/>
	<path id="Trazado_165694" d="M-384.3-524.5c-0.2-0.2-0.5-0.3-0.8-0.3h-2v-21c0-0.6-0.4-1-1-1h-22c-1.3,0-2.5,0.4-3.5,1.2
		c-1.6-4.1-6.3-6.1-10.4-4.5s-6.1,6.3-4.5,10.4c-2.2,0.2-3.8,2.2-3.6,4.4c0.2,2,1.9,3.6,4,3.6h3v7h-2c-0.6,0-1,0.4-1,1
		c0,0.1,0,0.1,0,0.2l1,6c0.1,0.5,0.5,0.8,1,0.8h40c0.5,0,0.9-0.4,1-0.8l1-6C-384-524-384.1-524.3-384.3-524.5z M-389.1-544.8v20h-14
		c-0.6,0-1,0.4-1,1v1h-4v-1c0-0.6-0.4-1-1-1h-14v-7h2v2c0,1.7,1.3,3,3,3h19v-2h-19c-0.6,0-1-0.4-1-1v-2h15c2.2,0,4-1.8,4-4
		s-1.8-4-4-4h-0.1c0.1-0.3,0.1-0.7,0.1-1c0-1.5-0.5-2.9-1.5-4H-389.1z M-428.1-533.8c-1.1,0-2-0.9-2-2s0.9-2,2-2h1.3
		c0.4,0,0.7-0.2,0.9-0.5c0.2-0.3,0.1-0.7-0.1-1c-0.7-1-1.1-2.2-1.1-3.4c0-3.3,2.7-6,6-6c3,0,5.6,2.2,5.9,5.2
		c0.1,0.4,0.3,0.7,0.8,0.8c0.4,0.1,0.8-0.1,1.1-0.4c1.3-1.8,3.8-2.2,5.6-0.9c1.5,1.1,2.1,3.1,1.3,4.8c-0.2,0.5,0,1.1,0.5,1.3
		c0.1,0.1,0.3,0.1,0.4,0.1h1.4c1.1,0,2,0.9,2,2s-0.9,2-2,2H-428.1z M-386.9-518.8h-38.3l-0.7-4h15.8v1c0,0.6,0.4,1,1,1h6
		c0.6,0,1-0.4,1-1v-1h15.8L-386.9-518.8z"/>
	<path id="Trazado_165695" d="M-397.1-528.8h2v2h-2V-528.8z"/>
	<path id="Trazado_165696" d="M-393.1-539.8v7h2v-7c0-1.7-1.3-3-3-3h-6v2h6C-393.5-540.8-393.1-540.4-393.1-539.8z"/>
	<path id="Trazado_165697" d="M-393.1-530.8h2v2h-2V-530.8z"/>
</g>
<g>
	<path d="M3.9,422.3L0,410.2h2.4l2.8,9l2.7-9h2.3l-3.9,12.2H3.9z"/>
	<path d="M16,422.3V421c-0.3,0.5-0.7,0.8-1.1,1.1c-0.5,0.3-1,0.4-1.5,0.4c-0.5,0-1-0.1-1.4-0.4c-0.4-0.3-0.7-0.6-0.9-1.1
		c-0.2-0.5-0.3-1.1-0.3-2v-5.6h2.1v4.1c0,1.2,0,2,0.1,2.3c0.1,0.3,0.2,0.5,0.4,0.7s0.5,0.2,0.8,0.2c0.4,0,0.7-0.1,1-0.3
		s0.5-0.5,0.6-0.8c0.1-0.3,0.2-1.1,0.2-2.4v-3.7h2.1v8.8H16z"/>
	<path d="M20.1,422.3v-12.2h2.1v12.2H20.1z"/>
	<path d="M31.6,422.3h-2.1v-4.5c0-1,0-1.6-0.1-1.8c-0.1-0.3-0.2-0.5-0.4-0.7c-0.2-0.2-0.4-0.2-0.7-0.2c-0.4,0-0.7,0.1-1,0.3
		c-0.3,0.2-0.5,0.5-0.6,0.9c-0.1,0.4-0.2,1-0.2,2v4h-2.1v-8.8h2v1.3c0.7-1,1.6-1.5,2.6-1.5c0.5,0,0.9,0.1,1.3,0.3s0.7,0.4,0.9,0.7
		c0.2,0.3,0.3,0.6,0.4,1c0.1,0.4,0.1,0.9,0.1,1.6V422.3z"/>
	<path d="M38.3,419.5l2.1,0.4c-0.3,0.9-0.7,1.5-1.3,1.9c-0.6,0.4-1.3,0.7-2.2,0.7c-1.4,0-2.4-0.5-3.1-1.5c-0.5-0.8-0.8-1.8-0.8-3
		c0-1.5,0.3-2.6,1-3.4c0.7-0.8,1.6-1.2,2.6-1.2c1.2,0,2.1,0.4,2.8,1.3s1,2.2,1,4h-5.3c0,0.7,0.2,1.2,0.5,1.6
		c0.3,0.4,0.7,0.6,1.2,0.6c0.3,0,0.6-0.1,0.8-0.3C38,420.3,38.2,420,38.3,419.5z M38.4,417.2c0-0.7-0.2-1.2-0.5-1.5
		c-0.3-0.4-0.7-0.5-1.1-0.5c-0.5,0-0.8,0.2-1.1,0.6c-0.3,0.4-0.4,0.9-0.4,1.5H38.4z"/>
	<path d="M44.2,422.3h-2.1v-8.8h2v1.3c0.3-0.6,0.6-1,0.9-1.2c0.3-0.2,0.6-0.3,0.9-0.3c0.5,0,0.9,0.1,1.4,0.4l-0.7,2
		c-0.4-0.3-0.7-0.4-1-0.4c-0.3,0-0.5,0.1-0.7,0.3s-0.4,0.5-0.5,1c-0.1,0.5-0.2,1.5-0.2,3V422.3z"/>
	<path d="M49.7,416.2l-1.9-0.4c0.2-0.9,0.6-1.5,1.1-1.9s1.3-0.6,2.3-0.6c0.9,0,1.6,0.1,2.1,0.4c0.5,0.2,0.8,0.6,1,0.9
		c0.2,0.4,0.3,1.1,0.3,2.1l0,2.7c0,0.8,0,1.3,0.1,1.7c0.1,0.4,0.2,0.8,0.4,1.2H53c-0.1-0.2-0.1-0.4-0.2-0.7c0-0.1-0.1-0.2-0.1-0.3
		c-0.4,0.4-0.7,0.7-1.2,0.9c-0.4,0.2-0.8,0.3-1.3,0.3c-0.8,0-1.5-0.2-1.9-0.7c-0.5-0.5-0.7-1.1-0.7-1.9c0-0.5,0.1-0.9,0.3-1.3
		c0.2-0.4,0.5-0.7,0.9-0.9c0.4-0.2,0.9-0.4,1.7-0.5c1-0.2,1.7-0.4,2-0.6v-0.2c0-0.4-0.1-0.8-0.3-1c-0.2-0.2-0.6-0.3-1.1-0.3
		c-0.4,0-0.7,0.1-0.9,0.2C50,415.5,49.9,415.8,49.7,416.2z M52.5,418.1c-0.3,0.1-0.7,0.2-1.3,0.4c-0.6,0.1-1,0.3-1.1,0.4
		c-0.3,0.2-0.4,0.5-0.4,0.8c0,0.3,0.1,0.6,0.3,0.8c0.2,0.2,0.5,0.4,0.8,0.4c0.4,0,0.7-0.1,1.1-0.4c0.3-0.2,0.4-0.5,0.5-0.8
		c0.1-0.2,0.1-0.6,0.1-1.1V418.1z"/>
	<path d="M56.6,422.3v-12.2h2.1v4.4c0.6-0.8,1.4-1.2,2.3-1.2c1,0,1.8,0.4,2.4,1.2s0.9,1.9,0.9,3.3c0,1.5-0.3,2.7-1,3.5
		c-0.6,0.8-1.4,1.2-2.3,1.2c-0.5,0-0.9-0.1-1.3-0.4c-0.4-0.3-0.8-0.6-1.1-1.1v1.3H56.6z M58.7,417.7c0,0.9,0.1,1.6,0.4,2
		c0.4,0.6,0.8,0.9,1.4,0.9c0.5,0,0.9-0.2,1.2-0.7c0.3-0.4,0.5-1.1,0.5-2.1c0-1-0.2-1.7-0.5-2.2s-0.7-0.7-1.3-0.7
		c-0.5,0-0.9,0.2-1.3,0.7C58.8,416.2,58.7,416.8,58.7,417.7z"/>
	<path d="M66,412.3v-2.2h2.1v2.2H66z M66,422.3v-8.8h2.1v8.8H66z"/>
	<path d="M70.3,422.3v-12.2h2.1v12.2H70.3z"/>
	<path d="M74.5,412.3v-2.2h2.1v2.2H74.5z M74.5,422.3v-8.8h2.1v8.8H74.5z"/>
	<path d="M86.1,422.3h-2V421c-0.3,0.5-0.7,0.9-1.1,1.1c-0.4,0.2-0.9,0.4-1.3,0.4c-0.9,0-1.7-0.4-2.3-1.2c-0.6-0.8-1-2-1-3.4
		c0-1.5,0.3-2.6,0.9-3.4s1.4-1.2,2.4-1.2c0.9,0,1.7,0.4,2.3,1.2v-4.4h2.1V422.3z M80.4,417.7c0,0.9,0.1,1.6,0.4,2
		c0.3,0.6,0.8,0.9,1.4,0.9c0.5,0,0.9-0.2,1.2-0.7c0.3-0.5,0.5-1.1,0.5-2c0-1-0.2-1.7-0.5-2.2c-0.3-0.4-0.7-0.7-1.3-0.7
		c-0.5,0-0.9,0.2-1.3,0.7C80.6,416.2,80.4,416.9,80.4,417.7z"/>
	<path d="M89.7,416.2l-1.9-0.4c0.2-0.9,0.6-1.5,1.1-1.9s1.3-0.6,2.3-0.6c0.9,0,1.6,0.1,2.1,0.4s0.8,0.6,1,0.9
		c0.2,0.4,0.3,1.1,0.3,2.1l0,2.7c0,0.8,0,1.3,0.1,1.7c0.1,0.4,0.2,0.8,0.4,1.2h-2.1c-0.1-0.2-0.1-0.4-0.2-0.7c0-0.1-0.1-0.2-0.1-0.3
		c-0.4,0.4-0.7,0.7-1.2,0.9c-0.4,0.2-0.8,0.3-1.3,0.3c-0.8,0-1.5-0.2-1.9-0.7c-0.5-0.5-0.7-1.1-0.7-1.9c0-0.5,0.1-0.9,0.3-1.3
		c0.2-0.4,0.5-0.7,0.9-0.9c0.4-0.2,0.9-0.4,1.7-0.5c1-0.2,1.7-0.4,2-0.6v-0.2c0-0.4-0.1-0.8-0.3-1c-0.2-0.2-0.6-0.3-1.1-0.3
		c-0.4,0-0.7,0.1-0.9,0.2S89.8,415.8,89.7,416.2z M92.5,418.1c-0.3,0.1-0.7,0.2-1.3,0.4c-0.6,0.1-1,0.3-1.1,0.4
		c-0.3,0.2-0.4,0.5-0.4,0.8c0,0.3,0.1,0.6,0.3,0.8c0.2,0.2,0.5,0.4,0.8,0.4c0.4,0,0.7-0.1,1.1-0.4c0.3-0.2,0.4-0.5,0.5-0.8
		c0.1-0.2,0.1-0.6,0.1-1.1V418.1z"/>
	<path d="M103.9,422.3h-2V421c-0.3,0.5-0.7,0.9-1.1,1.1c-0.4,0.2-0.9,0.4-1.3,0.4c-0.9,0-1.7-0.4-2.3-1.2c-0.6-0.8-1-2-1-3.4
		c0-1.5,0.3-2.6,0.9-3.4s1.4-1.2,2.4-1.2c0.9,0,1.7,0.4,2.3,1.2v-4.4h2.1V422.3z M98.3,417.7c0,0.9,0.1,1.6,0.4,2
		c0.3,0.6,0.8,0.9,1.4,0.9c0.5,0,0.9-0.2,1.2-0.7c0.3-0.5,0.5-1.1,0.5-2c0-1-0.2-1.7-0.5-2.2c-0.3-0.4-0.7-0.7-1.3-0.7
		c-0.5,0-0.9,0.2-1.3,0.7C98.5,416.2,98.3,416.9,98.3,417.7z"/>
	<path d="M110.6,419.5l2.1,0.4c-0.3,0.9-0.7,1.5-1.3,1.9c-0.6,0.4-1.3,0.7-2.2,0.7c-1.4,0-2.4-0.5-3.1-1.5c-0.5-0.8-0.8-1.8-0.8-3
		c0-1.5,0.3-2.6,1-3.4s1.6-1.2,2.6-1.2c1.2,0,2.1,0.4,2.8,1.3c0.7,0.9,1,2.2,1,4h-5.3c0,0.7,0.2,1.2,0.5,1.6
		c0.3,0.4,0.7,0.6,1.2,0.6c0.3,0,0.6-0.1,0.8-0.3C110.3,420.3,110.5,420,110.6,419.5z M110.7,417.2c0-0.7-0.2-1.2-0.5-1.5
		s-0.7-0.5-1.1-0.5c-0.5,0-0.8,0.2-1.1,0.6s-0.4,0.9-0.4,1.5H110.7z"/>
	<path d="M113.8,419.8l2.1-0.4c0.1,0.5,0.3,0.8,0.5,1c0.3,0.2,0.7,0.4,1.2,0.4c0.5,0,1-0.1,1.2-0.3c0.2-0.2,0.3-0.4,0.3-0.6
		c0-0.2,0-0.3-0.1-0.4c-0.1-0.1-0.3-0.2-0.7-0.3c-1.7-0.4-2.8-0.8-3.2-1.1c-0.6-0.5-0.9-1.1-0.9-2c0-0.8,0.3-1.4,0.8-1.9
		c0.5-0.5,1.4-0.8,2.5-0.8c1.1,0,1.9,0.2,2.4,0.6c0.5,0.4,0.9,1,1.1,1.7l-2,0.4c-0.1-0.3-0.2-0.6-0.5-0.8c-0.2-0.2-0.6-0.3-1-0.3
		c-0.6,0-0.9,0.1-1.2,0.3c-0.2,0.1-0.2,0.3-0.2,0.5c0,0.2,0.1,0.3,0.2,0.4c0.2,0.2,0.8,0.4,2,0.7c1.1,0.3,1.9,0.6,2.3,1
		c0.4,0.4,0.7,1,0.7,1.7c0,0.8-0.3,1.5-0.9,2.1c-0.6,0.6-1.5,0.9-2.7,0.9c-1.1,0-1.9-0.2-2.6-0.7
		C114.4,421.3,113.9,420.7,113.8,419.8z"/>
</g>
</svg>
